  0
SECTION
  2
HEADER
  9
$ACADVER
  1
AC1014
  9
$HANDSEED
  5
FFFF
  9
$MEASUREMENT
 70
     1
  0
ENDSEC
  0
SECTION
  2
TABLES
  0
TABLE
  2
VPORT
  5
8
330
0
100
AcDbSymbolTable
 70
     4
  0
VPORT
  5
2E
330
8
100
AcDbSymbolTableRecord
100
AcDbViewportTableRecord
  2
*ACTIVE
 70
     0
 10
0.0
 20
0.0
 11
1.0
 21
1.0
 12
210.0
 22
148.5
 13
0.0
 23
0.0
 14
10.0
 24
10.0
 15
10.0
 25
10.0
 16
0.0
 26
0.0
 36
1.0
 17
0.0
 27
0.0
 37
0.0
 40
341.0
 41
1.24
 42
50.0
 43
0.0
 44
0.0
 50
0.0
 51
0.0
 71
     0
 72
   100
 73
     1
 74
     3
 75
     0
 76
     0
 77
     0
 78
     0
  0
ENDTAB
  0
TABLE
  2
LTYPE
  5
5
330
0
100
AcDbSymbolTable
 70
     1
  0
LTYPE
  5
14
330
5
100
AcDbSymbolTableRecord
100
AcDbLinetypeTableRecord
  2
BYBLOCK
 70
     0
  3

 72
    65
 73
     0
 40
0.0
  0
LTYPE
  5
15
330
5
100
AcDbSymbolTableRecord
100
AcDbLinetypeTableRecord
  2
BYLAYER
 70
     0
  3

 72
    65
 73
     0
 40
0.0
  0
LTYPE
  5
16
330
5
100
AcDbSymbolTableRecord
100
AcDbLinetypeTableRecord
  2
CONTINUOUS
 70
     0
  3
Solid line
 72
    65
 73
     0
 40
0.0
  0
ENDTAB
  0
TABLE
  2
LAYER
  5
2
100
AcDbSymbolTable
 70
5
  0
LAYER
  5
50
100
AcDbSymbolTableRecord
100
AcDbLayerTableRecord
  2
0
 70
0
  6
CONTINUOUS
  0
LAYER
  5
51
100
AcDbSymbolTableRecord
100
AcDbLayerTableRecord
  2
Helpers
 70
0
  6
CONTINUOUS
  0
LAYER
  5
52
100
AcDbSymbolTableRecord
100
AcDbLayerTableRecord
  2
Text
 70
0
  6
CONTINUOUS
  0
LAYER
  5
53
100
AcDbSymbolTableRecord
100
AcDbLayerTableRecord
  2
Text_Helper
 70
0
  6
CONTINUOUS
  0
LAYER
  5
54
100
AcDbSymbolTableRecord
100
AcDbLayerTableRecord
  2
Layer_1
 70
0
  6
CONTINUOUS
  0
ENDTAB
  0
TABLE
  2
STYLE
  5
3
330
0
100
AcDbSymbolTable
 70
     1
  0
STYLE
  5
11
330
3
100
AcDbSymbolTableRecord
100
AcDbTextStyleTableRecord
  2
STANDARD
 70
     0
 40
0.0
 41
1.0
 50
0.0
 71
     0
 42
2.5
  3
txt
  4

  0
ENDTAB
  0
TABLE
  2
VIEW
  5
6
330
0
100
AcDbSymbolTable
 70
     0
  0
ENDTAB
  0
TABLE
  2
UCS
  5
7
330
0
100
AcDbSymbolTable
 70
     0
  0
ENDTAB
  0
TABLE
  2
APPID
  5
9
330
0
100
AcDbSymbolTable
 70
     2
  0
APPID
  5
12
330
9
100
AcDbSymbolTableRecord
100
AcDbRegAppTableRecord
  2
ACAD
 70
     0
  0
ENDTAB
  0
TABLE
  2
DIMSTYLE
  5
A
330
0
100
AcDbSymbolTable
 70
     1
  0
DIMSTYLE
105
27
330
A
100
AcDbSymbolTableRecord
100
AcDbDimStyleTableRecord
  2
ISO-25
 70
     0
  3

  4

  5

  6

  7

 40
1.0
 41
2.5
 42
0.625
 43
3.75
 44
1.25
 45
0.0
 46
0.0
 47
0.0
 48
0.0
140
2.5
141
2.5
142
0.0
143
0.03937007874016
144
1.0
145
0.0
146
1.0
147
0.625
 71
     0
 72
     0
 73
     0
 74
     0
 75
     0
 76
     0
 77
     1
 78
     8
170
     0
171
     3
172
     1
173
     0
174
     0
175
     0
176
     0
177
     0
178
     0
270
     2
271
     2
272
     2
273
     2
274
     3
340
11
275
     0
280
     0
281
     0
282
     0
283
     0
284
     8
285
     0
286
     0
287
     3
288
     0
  0
ENDTAB
  0
TABLE
  2
BLOCK_RECORD
  5
1
330
0
100
AcDbSymbolTable
 70
     1
  0
BLOCK_RECORD
  5
1F
330
1
100
AcDbSymbolTableRecord
100
AcDbBlockTableRecord
  2
*MODEL_SPACE
  0
BLOCK_RECORD
  5
1B
330
1
100
AcDbSymbolTableRecord
100
AcDbBlockTableRecord
  2
*PAPER_SPACE
  0
ENDTAB
  0
ENDSEC
  0
SECTION
  2
BLOCKS
  0
BLOCK
  5
20
330
1F
100
AcDbEntity
  8
0
100
AcDbBlockBegin
  2
*MODEL_SPACE
 70
     0
 10
0.0
 20
0.0
 30
0.0
  3
*MODEL_SPACE
  1

  0
ENDBLK
  5
21
330
1F
100
AcDbEntity
  8
0
100
AcDbBlockEnd
  0
BLOCK
  5
1C
330
1B
100
AcDbEntity
 67
     1
  8
0
100
AcDbBlockBegin
  2
*PAPER_SPACE
  1

  0
ENDBLK
  5
1D
330
1B
100
AcDbEntity
 67
     1
  8
0
100
AcDbBlockEnd
  0
ENDSEC
  0
SECTION
  2
ENTITIES
  0
LINE
  5
100
100
AcDbEntity
  8
Text
 62
7
100
AcDbLine
 10
0.774161
 20
3.263959
 30
0.0
 11
0.855473
 21
3.263959
 31
0.0
  0
LINE
  5
101
100
AcDbEntity
  8
Text
 62
7
100
AcDbLine
 10
0.855473
 20
3.263959
 30
0.0
 11
0.855473
 21
3.138334
 31
0.0
  0
LINE
  5
102
100
AcDbEntity
  8
Text
 62
7
100
AcDbLine
 10
0.855473
 20
3.138334
 30
0.0
 11
0.919146
 21
3.138334
 31
0.0
  0
LINE
  5
103
100
AcDbEntity
  8
Text
 62
7
100
AcDbLine
 10
0.919146
 20
3.138334
 30
0.0
 11
0.919146
 21
3.263959
 31
0.0
  0
LINE
  5
104
100
AcDbEntity
  8
Text
 62
7
100
AcDbLine
 10
0.919146
 20
3.263959
 30
0.0
 11
1.000458
 21
3.263959
 31
0.0
  0
LINE
  5
105
100
AcDbEntity
  8
Text
 62
7
100
AcDbLine
 10
1.000458
 20
3.263959
 30
0.0
 11
1.000458
 21
2.962804
 31
0.0
  0
LINE
  5
106
100
AcDbEntity
  8
Text
 62
7
100
AcDbLine
 10
1.000458
 20
2.962804
 30
0.0
 11
0.919146
 21
2.962804
 31
0.0
  0
LINE
  5
107
100
AcDbEntity
  8
Text
 62
7
100
AcDbLine
 10
0.919146
 20
2.962804
 30
0.0
 11
0.919146
 21
3.088429
 31
0.0
  0
LINE
  5
108
100
AcDbEntity
  8
Text
 62
7
100
AcDbLine
 10
0.919146
 20
3.088429
 30
0.0
 11
0.855473
 21
3.088429
 31
0.0
  0
LINE
  5
109
100
AcDbEntity
  8
Text
 62
7
100
AcDbLine
 10
0.855473
 20
3.088429
 30
0.0
 11
0.855473
 21
2.962804
 31
0.0
  0
LINE
  5
10a
100
AcDbEntity
  8
Text
 62
7
100
AcDbLine
 10
0.855473
 20
2.962804
 30
0.0
 11
0.774161
 21
2.962804
 31
0.0
  0
LINE
  5
10b
100
AcDbEntity
  8
Text
 62
7
100
AcDbLine
 10
0.774161
 20
2.962804
 30
0.0
 11
0.774161
 21
3.263959
 31
0.0
  0
SPLINE
  5
10c
100
AcDbEntity
  8
Text
 62
7
100
AcDbSpline
 70
8
 71
3
 72
8
 73
4
 74
0
 40
0
 40
0
 40
0
 40
0
 40
1
 40
1
 40
1
 40
1
 10
1.027925
 20
3.158555
 30
0.0
 10
1.027925
 20
3.166586
 30
0.0
 10
1.030649
 20
3.173613
 30
0.0
 10
1.036099
 20
3.179636
 30
0.0
  0
SPLINE
  5
10d
100
AcDbEntity
  8
Text
 62
7
100
AcDbSpline
 70
8
 71
3
 72
8
 73
4
 74
0
 40
0
 40
0
 40
0
 40
0
 40
1
 40
1
 40
1
 40
1
 10
1.036099
 20
3.179636
 30
0.0
 10
1.041548
 20
3.185659
 30
0.0
 10
1.047858
 20
3.188670
 30
0.0
 10
1.055029
 20
3.188670
 30
0.0
  0
LINE
  5
10e
100
AcDbEntity
  8
Text
 62
7
100
AcDbLine
 10
1.055029
 20
3.188670
 30
0.0
 11
1.208618
 21
3.188670
 31
0.0
  0
SPLINE
  5
10f
100
AcDbEntity
  8
Text
 62
7
100
AcDbSpline
 70
8
 71
3
 72
8
 73
4
 74
0
 40
0
 40
0
 40
0
 40
0
 40
1
 40
1
 40
1
 40
1
 10
1.208618
 20
3.188670
 30
0.0
 10
1.215788
 20
3.188670
 30
0.0
 10
1.222098
 20
3.185659
 30
0.0
 10
1.227548
 20
3.179636
 30
0.0
  0
SPLINE
  5
110
100
AcDbEntity
  8
Text
 62
7
100
AcDbSpline
 70
8
 71
3
 72
8
 73
4
 74
0
 40
0
 40
0
 40
0
 40
0
 40
1
 40
1
 40
1
 40
1
 10
1.227548
 20
3.179636
 30
0.0
 10
1.232997
 20
3.173613
 30
0.0
 10
1.235722
 20
3.166586
 30
0.0
 10
1.235722
 20
3.158555
 30
0.0
  0
LINE
  5
111
100
AcDbEntity
  8
Text
 62
7
100
AcDbLine
 10
1.235722
 20
3.158555
 30
0.0
 11
1.235722
 21
3.078103
 31
0.0
  0
SPLINE
  5
112
100
AcDbEntity
  8
Text
 62
7
100
AcDbSpline
 70
8
 71
3
 72
8
 73
4
 74
0
 40
0
 40
0
 40
0
 40
0
 40
1
 40
1
 40
1
 40
1
 10
1.235722
 20
3.078103
 30
0.0
 10
1.235722
 20
3.070073
 30
0.0
 10
1.232997
 20
3.063046
 30
0.0
 10
1.227548
 20
3.057022
 30
0.0
  0
SPLINE
  5
113
100
AcDbEntity
  8
Text
 62
7
100
AcDbSpline
 70
8
 71
3
 72
8
 73
4
 74
0
 40
0
 40
0
 40
0
 40
0
 40
1
 40
1
 40
1
 40
1
 10
1.227548
 20
3.057022
 30
0.0
 10
1.222098
 20
3.050999
 30
0.0
 10
1.215788
 20
3.047988
 30
0.0
 10
1.208618
 20
3.047988
 30
0.0
  0
LINE
  5
114
100
AcDbEntity
  8
Text
 62
7
100
AcDbLine
 10
1.208618
 20
3.047988
 30
0.0
 11
1.109237
 21
3.047988
 31
0.0
  0
LINE
  5
115
100
AcDbEntity
  8
Text
 62
7
100
AcDbLine
 10
1.109237
 20
3.047988
 30
0.0
 11
1.109237
 21
3.027767
 31
0.0
  0
LINE
  5
116
100
AcDbEntity
  8
Text
 62
7
100
AcDbLine
 10
1.109237
 20
3.027767
 30
0.0
 11
1.235722
 21
3.027767
 31
0.0
  0
LINE
  5
117
100
AcDbEntity
  8
Text
 62
7
100
AcDbLine
 10
1.235722
 20
3.027767
 30
0.0
 11
1.208618
 21
2.962804
 31
0.0
  0
LINE
  5
118
100
AcDbEntity
  8
Text
 62
7
100
AcDbLine
 10
1.208618
 20
2.962804
 30
0.0
 11
1.055029
 21
2.962804
 31
0.0
  0
SPLINE
  5
119
100
AcDbEntity
  8
Text
 62
7
100
AcDbSpline
 70
8
 71
3
 72
8
 73
4
 74
0
 40
0
 40
0
 40
0
 40
0
 40
1
 40
1
 40
1
 40
1
 10
1.055029
 20
2.962804
 30
0.0
 10
1.047858
 20
2.962804
 30
0.0
 10
1.041548
 20
2.965815
 30
0.0
 10
1.036099
 20
2.971838
 30
0.0
  0
SPLINE
  5
11a
100
AcDbEntity
  8
Text
 62
7
100
AcDbSpline
 70
8
 71
3
 72
8
 73
4
 74
0
 40
0
 40
0
 40
0
 40
0
 40
1
 40
1
 40
1
 40
1
 10
1.036099
 20
2.971838
 30
0.0
 10
1.030649
 20
2.977862
 30
0.0
 10
1.027925
 20
2.984889
 30
0.0
 10
1.027925
 20
2.992919
 30
0.0
  0
LINE
  5
11b
100
AcDbEntity
  8
Text
 62
7
100
AcDbLine
 10
1.027925
 20
2.992919
 30
0.0
 11
1.027925
 21
3.158555
 31
0.0
  0
LINE
  5
11c
100
AcDbEntity
  8
Text
 62
7
100
AcDbLine
 10
1.154410
 20
3.097894
 30
0.0
 11
1.154410
 21
3.123277
 31
0.0
  0
LINE
  5
11d
100
AcDbEntity
  8
Text
 62
7
100
AcDbLine
 10
1.154410
 20
3.123277
 30
0.0
 11
1.109237
 21
3.123277
 31
0.0
  0
LINE
  5
11e
100
AcDbEntity
  8
Text
 62
7
100
AcDbLine
 10
1.109237
 20
3.123277
 30
0.0
 11
1.109237
 21
3.097894
 31
0.0
  0
LINE
  5
11f
100
AcDbEntity
  8
Text
 62
7
100
AcDbLine
 10
1.109237
 20
3.097894
 30
0.0
 11
1.154410
 21
3.097894
 31
0.0
  0
SPLINE
  5
120
100
AcDbEntity
  8
Text
 62
7
100
AcDbSpline
 70
8
 71
3
 72
8
 73
4
 74
0
 40
0
 40
0
 40
0
 40
0
 40
1
 40
1
 40
1
 40
1
 10
1.256339
 20
3.158555
 30
0.0
 10
1.256339
 20
3.166586
 30
0.0
 10
1.259064
 20
3.173613
 30
0.0
 10
1.264513
 20
3.179636
 30
0.0
  0
SPLINE
  5
121
100
AcDbEntity
  8
Text
 62
7
100
AcDbSpline
 70
8
 71
3
 72
8
 73
4
 74
0
 40
0
 40
0
 40
0
 40
0
 40
1
 40
1
 40
1
 40
1
 10
1.264513
 20
3.179636
 30
0.0
 10
1.269963
 20
3.185659
 30
0.0
 10
1.276273
 20
3.188670
 30
0.0
 10
1.283443
 20
3.188670
 30
0.0
  0
LINE
  5
122
100
AcDbEntity
  8
Text
 62
7
100
AcDbLine
 10
1.283443
 20
3.188670
 30
0.0
 11
1.382394
 21
3.188670
 31
0.0
  0
LINE
  5
123
100
AcDbEntity
  8
Text
 62
7
100
AcDbLine
 10
1.382394
 20
3.188670
 30
0.0
 11
1.382394
 21
3.263959
 31
0.0
  0
LINE
  5
124
100
AcDbEntity
  8
Text
 62
7
100
AcDbLine
 10
1.382394
 20
3.263959
 30
0.0
 11
1.463706
 21
3.263959
 31
0.0
  0
LINE
  5
125
100
AcDbEntity
  8
Text
 62
7
100
AcDbLine
 10
1.463706
 20
3.263959
 30
0.0
 11
1.463706
 21
2.962804
 31
0.0
  0
LINE
  5
126
100
AcDbEntity
  8
Text
 62
7
100
AcDbLine
 10
1.463706
 20
2.962804
 30
0.0
 11
1.283443
 21
2.962804
 31
0.0
  0
SPLINE
  5
127
100
AcDbEntity
  8
Text
 62
7
100
AcDbSpline
 70
8
 71
3
 72
8
 73
4
 74
0
 40
0
 40
0
 40
0
 40
0
 40
1
 40
1
 40
1
 40
1
 10
1.283443
 20
2.962804
 30
0.0
 10
1.276273
 20
2.962804
 30
0.0
 10
1.269963
 20
2.965815
 30
0.0
 10
1.264513
 20
2.971838
 30
0.0
  0
SPLINE
  5
128
100
AcDbEntity
  8
Text
 62
7
100
AcDbSpline
 70
8
 71
3
 72
8
 73
4
 74
0
 40
0
 40
0
 40
0
 40
0
 40
1
 40
1
 40
1
 40
1
 10
1.264513
 20
2.971838
 30
0.0
 10
1.259064
 20
2.977862
 30
0.0
 10
1.256339
 20
2.984889
 30
0.0
 10
1.256339
 20
2.992919
 30
0.0
  0
LINE
  5
129
100
AcDbEntity
  8
Text
 62
7
100
AcDbLine
 10
1.256339
 20
2.992919
 30
0.0
 11
1.256339
 21
3.158555
 31
0.0
  0
LINE
  5
12a
100
AcDbEntity
  8
Text
 62
7
100
AcDbLine
 10
1.382394
 20
3.028198
 30
0.0
 11
1.382394
 21
3.123277
 31
0.0
  0
LINE
  5
12b
100
AcDbEntity
  8
Text
 62
7
100
AcDbLine
 10
1.382394
 20
3.123277
 30
0.0
 11
1.337651
 21
3.123277
 31
0.0
  0
LINE
  5
12c
100
AcDbEntity
  8
Text
 62
7
100
AcDbLine
 10
1.337651
 20
3.123277
 30
0.0
 11
1.337651
 21
3.028198
 31
0.0
  0
LINE
  5
12d
100
AcDbEntity
  8
Text
 62
7
100
AcDbLine
 10
1.337651
 20
3.028198
 30
0.0
 11
1.382394
 21
3.028198
 31
0.0
  0
SPLINE
  5
12e
100
AcDbEntity
  8
Text
 62
7
100
AcDbSpline
 70
8
 71
3
 72
8
 73
4
 74
0
 40
0
 40
0
 40
0
 40
0
 40
1
 40
1
 40
1
 40
1
 10
1.490898
 20
3.158555
 30
0.0
 10
1.490898
 20
3.166586
 30
0.0
 10
1.493479
 20
3.173613
 30
0.0
 10
1.498642
 20
3.179636
 30
0.0
  0
SPLINE
  5
12f
100
AcDbEntity
  8
Text
 62
7
100
AcDbSpline
 70
8
 71
3
 72
8
 73
4
 74
0
 40
0
 40
0
 40
0
 40
0
 40
1
 40
1
 40
1
 40
1
 10
1.498642
 20
3.179636
 30
0.0
 10
1.504091
 20
3.185659
 30
0.0
 10
1.510544
 20
3.188670
 30
0.0
 10
1.518002
 20
3.188670
 30
0.0
  0
LINE
  5
130
100
AcDbEntity
  8
Text
 62
7
100
AcDbLine
 10
1.518002
 20
3.188670
 30
0.0
 11
1.698265
 21
3.188670
 31
0.0
  0
LINE
  5
131
100
AcDbEntity
  8
Text
 62
7
100
AcDbLine
 10
1.698265
 20
3.188670
 30
0.0
 11
1.698265
 21
2.893108
 31
0.0
  0
SPLINE
  5
132
100
AcDbEntity
  8
Text
 62
7
100
AcDbSpline
 70
8
 71
3
 72
8
 73
4
 74
0
 40
0
 40
0
 40
0
 40
0
 40
1
 40
1
 40
1
 40
1
 10
1.698265
 20
2.893108
 30
0.0
 10
1.698265
 20
2.885077
 30
0.0
 10
1.695540
 20
2.878050
 30
0.0
 10
1.690091
 20
2.872027
 30
0.0
  0
SPLINE
  5
133
100
AcDbEntity
  8
Text
 62
7
100
AcDbSpline
 70
8
 71
3
 72
8
 73
4
 74
0
 40
0
 40
0
 40
0
 40
0
 40
1
 40
1
 40
1
 40
1
 10
1.690091
 20
2.872027
 30
0.0
 10
1.684641
 20
2.866004
 30
0.0
 10
1.678331
 20
2.862992
 30
0.0
 10
1.671161
 20
2.862992
 30
0.0
  0
LINE
  5
134
100
AcDbEntity
  8
Text
 62
7
100
AcDbLine
 10
1.671161
 20
2.862992
 30
0.0
 11
1.518002
 21
2.862992
 31
0.0
  0
LINE
  5
135
100
AcDbEntity
  8
Text
 62
7
100
AcDbLine
 10
1.518002
 20
2.862992
 30
0.0
 11
1.490898
 21
2.928386
 31
0.0
  0
LINE
  5
136
100
AcDbEntity
  8
Text
 62
7
100
AcDbLine
 10
1.490898
 20
2.928386
 30
0.0
 11
1.616953
 21
2.928386
 31
0.0
  0
LINE
  5
137
100
AcDbEntity
  8
Text
 62
7
100
AcDbLine
 10
1.616953
 20
2.928386
 30
0.0
 11
1.616953
 21
2.962804
 31
0.0
  0
LINE
  5
138
100
AcDbEntity
  8
Text
 62
7
100
AcDbLine
 10
1.616953
 20
2.962804
 30
0.0
 11
1.518002
 21
2.962804
 31
0.0
  0
SPLINE
  5
139
100
AcDbEntity
  8
Text
 62
7
100
AcDbSpline
 70
8
 71
3
 72
8
 73
4
 74
0
 40
0
 40
0
 40
0
 40
0
 40
1
 40
1
 40
1
 40
1
 10
1.518002
 20
2.962804
 30
0.0
 10
1.510544
 20
2.962804
 30
0.0
 10
1.504091
 20
2.965815
 30
0.0
 10
1.498642
 20
2.971838
 30
0.0
  0
SPLINE
  5
13a
100
AcDbEntity
  8
Text
 62
7
100
AcDbSpline
 70
8
 71
3
 72
8
 73
4
 74
0
 40
0
 40
0
 40
0
 40
0
 40
1
 40
1
 40
1
 40
1
 10
1.498642
 20
2.971838
 30
0.0
 10
1.493479
 20
2.977862
 30
0.0
 10
1.490898
 20
2.984889
 30
0.0
 10
1.490898
 20
2.992919
 30
0.0
  0
LINE
  5
13b
100
AcDbEntity
  8
Text
 62
7
100
AcDbLine
 10
1.490898
 20
2.992919
 30
0.0
 11
1.490898
 21
3.158555
 31
0.0
  0
LINE
  5
13c
100
AcDbEntity
  8
Text
 62
7
100
AcDbLine
 10
1.616953
 20
3.028198
 30
0.0
 11
1.616953
 21
3.123277
 31
0.0
  0
LINE
  5
13d
100
AcDbEntity
  8
Text
 62
7
100
AcDbLine
 10
1.616953
 20
3.123277
 30
0.0
 11
1.572210
 21
3.123277
 31
0.0
  0
LINE
  5
13e
100
AcDbEntity
  8
Text
 62
7
100
AcDbLine
 10
1.572210
 20
3.123277
 30
0.0
 11
1.572210
 21
3.028198
 31
0.0
  0
LINE
  5
13f
100
AcDbEntity
  8
Text
 62
7
100
AcDbLine
 10
1.572210
 20
3.028198
 30
0.0
 11
1.616953
 21
3.028198
 31
0.0
  0
SPLINE
  5
140
100
AcDbEntity
  8
Text
 62
7
100
AcDbSpline
 70
8
 71
3
 72
8
 73
4
 74
0
 40
0
 40
0
 40
0
 40
0
 40
1
 40
1
 40
1
 40
1
 10
1.726196
 20
3.158555
 30
0.0
 10
1.726196
 20
3.166586
 30
0.0
 10
1.728920
 20
3.173613
 30
0.0
 10
1.734370
 20
3.179636
 30
0.0
  0
SPLINE
  5
141
100
AcDbEntity
  8
Text
 62
7
100
AcDbSpline
 70
8
 71
3
 72
8
 73
4
 74
0
 40
0
 40
0
 40
0
 40
0
 40
1
 40
1
 40
1
 40
1
 10
1.734370
 20
3.179636
 30
0.0
 10
1.739819
 20
3.185659
 30
0.0
 10
1.746129
 20
3.188670
 30
0.0
 10
1.753300
 20
3.188670
 30
0.0
  0
LINE
  5
142
100
AcDbEntity
  8
Text
 62
7
100
AcDbLine
 10
1.753300
 20
3.188670
 30
0.0
 11
1.906889
 21
3.188670
 31
0.0
  0
SPLINE
  5
143
100
AcDbEntity
  8
Text
 62
7
100
AcDbSpline
 70
8
 71
3
 72
8
 73
4
 74
0
 40
0
 40
0
 40
0
 40
0
 40
1
 40
1
 40
1
 40
1
 10
1.906889
 20
3.188670
 30
0.0
 10
1.914059
 20
3.188670
 30
0.0
 10
1.920369
 20
3.185659
 30
0.0
 10
1.925819
 20
3.179636
 30
0.0
  0
SPLINE
  5
144
100
AcDbEntity
  8
Text
 62
7
100
AcDbSpline
 70
8
 71
3
 72
8
 73
4
 74
0
 40
0
 40
0
 40
0
 40
0
 40
1
 40
1
 40
1
 40
1
 10
1.925819
 20
3.179636
 30
0.0
 10
1.931268
 20
3.173613
 30
0.0
 10
1.933993
 20
3.166586
 30
0.0
 10
1.933993
 20
3.158555
 30
0.0
  0
LINE
  5
145
100
AcDbEntity
  8
Text
 62
7
100
AcDbLine
 10
1.933993
 20
3.158555
 30
0.0
 11
1.933993
 21
3.078103
 31
0.0
  0
SPLINE
  5
146
100
AcDbEntity
  8
Text
 62
7
100
AcDbSpline
 70
8
 71
3
 72
8
 73
4
 74
0
 40
0
 40
0
 40
0
 40
0
 40
1
 40
1
 40
1
 40
1
 10
1.933993
 20
3.078103
 30
0.0
 10
1.933993
 20
3.070073
 30
0.0
 10
1.931268
 20
3.063046
 30
0.0
 10
1.925819
 20
3.057022
 30
0.0
  0
SPLINE
  5
147
100
AcDbEntity
  8
Text
 62
7
100
AcDbSpline
 70
8
 71
3
 72
8
 73
4
 74
0
 40
0
 40
0
 40
0
 40
0
 40
1
 40
1
 40
1
 40
1
 10
1.925819
 20
3.057022
 30
0.0
 10
1.920369
 20
3.050999
 30
0.0
 10
1.914059
 20
3.047988
 30
0.0
 10
1.906889
 20
3.047988
 30
0.0
  0
LINE
  5
148
100
AcDbEntity
  8
Text
 62
7
100
AcDbLine
 10
1.906889
 20
3.047988
 30
0.0
 11
1.807508
 21
3.047988
 31
0.0
  0
LINE
  5
149
100
AcDbEntity
  8
Text
 62
7
100
AcDbLine
 10
1.807508
 20
3.047988
 30
0.0
 11
1.807508
 21
3.027767
 31
0.0
  0
LINE
  5
14a
100
AcDbEntity
  8
Text
 62
7
100
AcDbLine
 10
1.807508
 20
3.027767
 30
0.0
 11
1.933993
 21
3.027767
 31
0.0
  0
LINE
  5
14b
100
AcDbEntity
  8
Text
 62
7
100
AcDbLine
 10
1.933993
 20
3.027767
 30
0.0
 11
1.906889
 21
2.962804
 31
0.0
  0
LINE
  5
14c
100
AcDbEntity
  8
Text
 62
7
100
AcDbLine
 10
1.906889
 20
2.962804
 30
0.0
 11
1.753300
 21
2.962804
 31
0.0
  0
SPLINE
  5
14d
100
AcDbEntity
  8
Text
 62
7
100
AcDbSpline
 70
8
 71
3
 72
8
 73
4
 74
0
 40
0
 40
0
 40
0
 40
0
 40
1
 40
1
 40
1
 40
1
 10
1.753300
 20
2.962804
 30
0.0
 10
1.746129
 20
2.962804
 30
0.0
 10
1.739819
 20
2.965815
 30
0.0
 10
1.734370
 20
2.971838
 30
0.0
  0
SPLINE
  5
14e
100
AcDbEntity
  8
Text
 62
7
100
AcDbSpline
 70
8
 71
3
 72
8
 73
4
 74
0
 40
0
 40
0
 40
0
 40
0
 40
1
 40
1
 40
1
 40
1
 10
1.734370
 20
2.971838
 30
0.0
 10
1.728920
 20
2.977862
 30
0.0
 10
1.726196
 20
2.984889
 30
0.0
 10
1.726196
 20
2.992919
 30
0.0
  0
LINE
  5
14f
100
AcDbEntity
  8
Text
 62
7
100
AcDbLine
 10
1.726196
 20
2.992919
 30
0.0
 11
1.726196
 21
3.158555
 31
0.0
  0
LINE
  5
150
100
AcDbEntity
  8
Text
 62
7
100
AcDbLine
 10
1.852681
 20
3.097894
 30
0.0
 11
1.852681
 21
3.123277
 31
0.0
  0
LINE
  5
151
100
AcDbEntity
  8
Text
 62
7
100
AcDbLine
 10
1.852681
 20
3.123277
 30
0.0
 11
1.807508
 21
3.123277
 31
0.0
  0
LINE
  5
152
100
AcDbEntity
  8
Text
 62
7
100
AcDbLine
 10
1.807508
 20
3.123277
 30
0.0
 11
1.807508
 21
3.097894
 31
0.0
  0
LINE
  5
153
100
AcDbEntity
  8
Text
 62
7
100
AcDbLine
 10
1.807508
 20
3.097894
 30
0.0
 11
1.852681
 21
3.097894
 31
0.0
  0
SPLINE
  5
154
100
AcDbEntity
  8
Text
 62
7
100
AcDbSpline
 70
8
 71
3
 72
8
 73
4
 74
0
 40
0
 40
0
 40
0
 40
0
 40
1
 40
1
 40
1
 40
1
 10
1.960633
 20
3.233844
 30
0.0
 10
1.960633
 20
3.241875
 30
0.0
 10
1.963358
 20
3.248902
 30
0.0
 10
1.968807
 20
3.254925
 30
0.0
  0
SPLINE
  5
155
100
AcDbEntity
  8
Text
 62
7
100
AcDbSpline
 70
8
 71
3
 72
8
 73
4
 74
0
 40
0
 40
0
 40
0
 40
0
 40
1
 40
1
 40
1
 40
1
 10
1.968807
 20
3.254925
 30
0.0
 10
1.974544
 20
3.260948
 30
0.0
 10
1.980853
 20
3.263959
 30
0.0
 10
1.987737
 20
3.263959
 30
0.0
  0
LINE
  5
156
100
AcDbEntity
  8
Text
 62
7
100
AcDbLine
 10
1.987737
 20
3.263959
 30
0.0
 11
2.186930
 21
3.263959
 31
0.0
  0
LINE
  5
157
100
AcDbEntity
  8
Text
 62
7
100
AcDbLine
 10
2.186930
 20
3.263959
 30
0.0
 11
2.159826
 21
3.198566
 31
0.0
  0
LINE
  5
158
100
AcDbEntity
  8
Text
 62
7
100
AcDbLine
 10
2.159826
 20
3.198566
 30
0.0
 11
2.041945
 21
3.198566
 31
0.0
  0
LINE
  5
159
100
AcDbEntity
  8
Text
 62
7
100
AcDbLine
 10
2.041945
 20
3.198566
 30
0.0
 11
2.041945
 21
3.028198
 31
0.0
  0
LINE
  5
15a
100
AcDbEntity
  8
Text
 62
7
100
AcDbLine
 10
2.041945
 20
3.028198
 30
0.0
 11
2.186930
 21
3.028198
 31
0.0
  0
LINE
  5
15b
100
AcDbEntity
  8
Text
 62
7
100
AcDbLine
 10
2.186930
 20
3.028198
 30
0.0
 11
2.159826
 21
2.962804
 31
0.0
  0
LINE
  5
15c
100
AcDbEntity
  8
Text
 62
7
100
AcDbLine
 10
2.159826
 20
2.962804
 30
0.0
 11
1.987737
 21
2.962804
 31
0.0
  0
SPLINE
  5
15d
100
AcDbEntity
  8
Text
 62
7
100
AcDbSpline
 70
8
 71
3
 72
8
 73
4
 74
0
 40
0
 40
0
 40
0
 40
0
 40
1
 40
1
 40
1
 40
1
 10
1.987737
 20
2.962804
 30
0.0
 10
1.980853
 20
2.962804
 30
0.0
 10
1.974544
 20
2.965672
 30
0.0
 10
1.968807
 20
2.971408
 30
0.0
  0
SPLINE
  5
15e
100
AcDbEntity
  8
Text
 62
7
100
AcDbSpline
 70
8
 71
3
 72
8
 73
4
 74
0
 40
0
 40
0
 40
0
 40
0
 40
1
 40
1
 40
1
 40
1
 10
1.968807
 20
2.971408
 30
0.0
 10
1.963358
 20
2.977431
 30
0.0
 10
1.960633
 20
2.984602
 30
0.0
 10
1.960633
 20
2.992919
 30
0.0
  0
LINE
  5
15f
100
AcDbEntity
  8
Text
 62
7
100
AcDbLine
 10
1.960633
 20
2.992919
 30
0.0
 11
1.960633
 21
3.233844
 31
0.0
  0
SPLINE
  5
160
100
AcDbEntity
  8
Text
 62
7
100
AcDbSpline
 70
8
 71
3
 72
8
 73
4
 74
0
 40
0
 40
0
 40
0
 40
0
 40
1
 40
1
 40
1
 40
1
 10
2.211876
 20
3.158555
 30
0.0
 10
2.211876
 20
3.166586
 30
0.0
 10
2.214601
 20
3.173613
 30
0.0
 10
2.220050
 20
3.179636
 30
0.0
  0
SPLINE
  5
161
100
AcDbEntity
  8
Text
 62
7
100
AcDbSpline
 70
8
 71
3
 72
8
 73
4
 74
0
 40
0
 40
0
 40
0
 40
0
 40
1
 40
1
 40
1
 40
1
 10
2.220050
 20
3.179636
 30
0.0
 10
2.225500
 20
3.185659
 30
0.0
 10
2.231810
 20
3.188670
 30
0.0
 10
2.238980
 20
3.188670
 30
0.0
  0
LINE
  5
162
100
AcDbEntity
  8
Text
 62
7
100
AcDbLine
 10
2.238980
 20
3.188670
 30
0.0
 11
2.392569
 21
3.188670
 31
0.0
  0
SPLINE
  5
163
100
AcDbEntity
  8
Text
 62
7
100
AcDbSpline
 70
8
 71
3
 72
8
 73
4
 74
0
 40
0
 40
0
 40
0
 40
0
 40
1
 40
1
 40
1
 40
1
 10
2.392569
 20
3.188670
 30
0.0
 10
2.399740
 20
3.188670
 30
0.0
 10
2.406050
 20
3.185659
 30
0.0
 10
2.411499
 20
3.179636
 30
0.0
  0
SPLINE
  5
164
100
AcDbEntity
  8
Text
 62
7
100
AcDbSpline
 70
8
 71
3
 72
8
 73
4
 74
0
 40
0
 40
0
 40
0
 40
0
 40
1
 40
1
 40
1
 40
1
 10
2.411499
 20
3.179636
 30
0.0
 10
2.416949
 20
3.173613
 30
0.0
 10
2.419673
 20
3.166586
 30
0.0
 10
2.419673
 20
3.158555
 30
0.0
  0
LINE
  5
165
100
AcDbEntity
  8
Text
 62
7
100
AcDbLine
 10
2.419673
 20
3.158555
 30
0.0
 11
2.419673
 21
2.992919
 31
0.0
  0
SPLINE
  5
166
100
AcDbEntity
  8
Text
 62
7
100
AcDbSpline
 70
8
 71
3
 72
8
 73
4
 74
0
 40
0
 40
0
 40
0
 40
0
 40
1
 40
1
 40
1
 40
1
 10
2.419673
 20
2.992919
 30
0.0
 10
2.419673
 20
2.984889
 30
0.0
 10
2.416949
 20
2.977862
 30
0.0
 10
2.411499
 20
2.971838
 30
0.0
  0
SPLINE
  5
167
100
AcDbEntity
  8
Text
 62
7
100
AcDbSpline
 70
8
 71
3
 72
8
 73
4
 74
0
 40
0
 40
0
 40
0
 40
0
 40
1
 40
1
 40
1
 40
1
 10
2.411499
 20
2.971838
 30
0.0
 10
2.406050
 20
2.965815
 30
0.0
 10
2.399740
 20
2.962804
 30
0.0
 10
2.392569
 20
2.962804
 30
0.0
  0
LINE
  5
168
100
AcDbEntity
  8
Text
 62
7
100
AcDbLine
 10
2.392569
 20
2.962804
 30
0.0
 11
2.238980
 21
2.962804
 31
0.0
  0
SPLINE
  5
169
100
AcDbEntity
  8
Text
 62
7
100
AcDbSpline
 70
8
 71
3
 72
8
 73
4
 74
0
 40
0
 40
0
 40
0
 40
0
 40
1
 40
1
 40
1
 40
1
 10
2.238980
 20
2.962804
 30
0.0
 10
2.231810
 20
2.962804
 30
0.0
 10
2.225500
 20
2.965815
 30
0.0
 10
2.220050
 20
2.971838
 30
0.0
  0
SPLINE
  5
16a
100
AcDbEntity
  8
Text
 62
7
100
AcDbSpline
 70
8
 71
3
 72
8
 73
4
 74
0
 40
0
 40
0
 40
0
 40
0
 40
1
 40
1
 40
1
 40
1
 10
2.220050
 20
2.971838
 30
0.0
 10
2.214601
 20
2.977862
 30
0.0
 10
2.211876
 20
2.984889
 30
0.0
 10
2.211876
 20
2.992919
 30
0.0
  0
LINE
  5
16b
100
AcDbEntity
  8
Text
 62
7
100
AcDbLine
 10
2.211876
 20
2.992919
 30
0.0
 11
2.211876
 21
3.158555
 31
0.0
  0
LINE
  5
16c
100
AcDbEntity
  8
Text
 62
7
100
AcDbLine
 10
2.338361
 20
3.027767
 30
0.0
 11
2.338361
 21
3.123277
 31
0.0
  0
LINE
  5
16d
100
AcDbEntity
  8
Text
 62
7
100
AcDbLine
 10
2.338361
 20
3.123277
 30
0.0
 11
2.293188
 21
3.123277
 31
0.0
  0
LINE
  5
16e
100
AcDbEntity
  8
Text
 62
7
100
AcDbLine
 10
2.293188
 20
3.123277
 30
0.0
 11
2.293188
 21
3.027767
 31
0.0
  0
LINE
  5
16f
100
AcDbEntity
  8
Text
 62
7
100
AcDbLine
 10
2.293188
 20
3.027767
 30
0.0
 11
2.338361
 21
3.027767
 31
0.0
  0
LINE
  5
170
100
AcDbEntity
  8
Text
 62
7
100
AcDbLine
 10
2.447154
 20
3.188670
 30
0.0
 11
2.528466
 21
3.188670
 31
0.0
  0
LINE
  5
171
100
AcDbEntity
  8
Text
 62
7
100
AcDbLine
 10
2.528466
 20
3.188670
 30
0.0
 11
2.528466
 21
3.027767
 31
0.0
  0
LINE
  5
172
100
AcDbEntity
  8
Text
 62
7
100
AcDbLine
 10
2.528466
 20
3.027767
 30
0.0
 11
2.573639
 21
3.027767
 31
0.0
  0
LINE
  5
173
100
AcDbEntity
  8
Text
 62
7
100
AcDbLine
 10
2.573639
 20
3.027767
 30
0.0
 11
2.573639
 21
3.188670
 31
0.0
  0
LINE
  5
174
100
AcDbEntity
  8
Text
 62
7
100
AcDbLine
 10
2.573639
 20
3.188670
 30
0.0
 11
2.654951
 21
3.188670
 31
0.0
  0
LINE
  5
175
100
AcDbEntity
  8
Text
 62
7
100
AcDbLine
 10
2.654951
 20
3.188670
 30
0.0
 11
2.654951
 21
2.962804
 31
0.0
  0
LINE
  5
176
100
AcDbEntity
  8
Text
 62
7
100
AcDbLine
 10
2.654951
 20
2.962804
 30
0.0
 11
2.474258
 21
2.962804
 31
0.0
  0
SPLINE
  5
177
100
AcDbEntity
  8
Text
 62
7
100
AcDbSpline
 70
8
 71
3
 72
8
 73
4
 74
0
 40
0
 40
0
 40
0
 40
0
 40
1
 40
1
 40
1
 40
1
 10
2.474258
 20
2.962804
 30
0.0
 10
2.467088
 20
2.962804
 30
0.0
 10
2.460778
 20
2.965815
 30
0.0
 10
2.455328
 20
2.971838
 30
0.0
  0
SPLINE
  5
178
100
AcDbEntity
  8
Text
 62
7
100
AcDbSpline
 70
8
 71
3
 72
8
 73
4
 74
0
 40
0
 40
0
 40
0
 40
0
 40
1
 40
1
 40
1
 40
1
 10
2.455328
 20
2.971838
 30
0.0
 10
2.449879
 20
2.977862
 30
0.0
 10
2.447154
 20
2.984889
 30
0.0
 10
2.447154
 20
2.992919
 30
0.0
  0
LINE
  5
179
100
AcDbEntity
  8
Text
 62
7
100
AcDbLine
 10
2.447154
 20
2.992919
 30
0.0
 11
2.447154
 21
3.188670
 31
0.0
  0
SPLINE
  5
17a
100
AcDbEntity
  8
Text
 62
7
100
AcDbSpline
 70
8
 71
3
 72
8
 73
4
 74
0
 40
0
 40
0
 40
0
 40
0
 40
1
 40
1
 40
1
 40
1
 10
2.682432
 20
3.158555
 30
0.0
 10
2.682432
 20
3.166586
 30
0.0
 10
2.685156
 20
3.173613
 30
0.0
 10
2.690606
 20
3.179636
 30
0.0
  0
SPLINE
  5
17b
100
AcDbEntity
  8
Text
 62
7
100
AcDbSpline
 70
8
 71
3
 72
8
 73
4
 74
0
 40
0
 40
0
 40
0
 40
0
 40
1
 40
1
 40
1
 40
1
 10
2.690606
 20
3.179636
 30
0.0
 10
2.696055
 20
3.185659
 30
0.0
 10
2.702365
 20
3.188670
 30
0.0
 10
2.709536
 20
3.188670
 30
0.0
  0
LINE
  5
17c
100
AcDbEntity
  8
Text
 62
7
100
AcDbLine
 10
2.709536
 20
3.188670
 30
0.0
 11
2.867857
 21
3.188670
 31
0.0
  0
LINE
  5
17d
100
AcDbEntity
  8
Text
 62
7
100
AcDbLine
 10
2.867857
 20
3.188670
 30
0.0
 11
2.840753
 21
3.123277
 31
0.0
  0
LINE
  5
17e
100
AcDbEntity
  8
Text
 62
7
100
AcDbLine
 10
2.840753
 20
3.123277
 30
0.0
 11
2.763744
 21
3.123277
 31
0.0
  0
LINE
  5
17f
100
AcDbEntity
  8
Text
 62
7
100
AcDbLine
 10
2.763744
 20
3.123277
 30
0.0
 11
2.763744
 21
2.962804
 31
0.0
  0
LINE
  5
180
100
AcDbEntity
  8
Text
 62
7
100
AcDbLine
 10
2.763744
 20
2.962804
 30
0.0
 11
2.682432
 21
2.962804
 31
0.0
  0
LINE
  5
181
100
AcDbEntity
  8
Text
 62
7
100
AcDbLine
 10
2.682432
 20
2.962804
 30
0.0
 11
2.682432
 21
3.158555
 31
0.0
  0
LINE
  5
182
100
AcDbEntity
  8
Text
 62
7
100
AcDbLine
 10
2.902578
 20
3.138334
 30
0.0
 11
2.880206
 21
3.138334
 31
0.0
  0
LINE
  5
183
100
AcDbEntity
  8
Text
 62
7
100
AcDbLine
 10
2.880206
 20
3.138334
 30
0.0
 11
2.880206
 21
3.188670
 31
0.0
  0
LINE
  5
184
100
AcDbEntity
  8
Text
 62
7
100
AcDbLine
 10
2.880206
 20
3.188670
 30
0.0
 11
2.902578
 21
3.188670
 31
0.0
  0
LINE
  5
185
100
AcDbEntity
  8
Text
 62
7
100
AcDbLine
 10
2.902578
 20
3.188670
 30
0.0
 11
2.902578
 21
3.263959
 31
0.0
  0
LINE
  5
186
100
AcDbEntity
  8
Text
 62
7
100
AcDbLine
 10
2.902578
 20
3.263959
 30
0.0
 11
2.983890
 21
3.263959
 31
0.0
  0
LINE
  5
187
100
AcDbEntity
  8
Text
 62
7
100
AcDbLine
 10
2.983890
 20
3.263959
 30
0.0
 11
2.983890
 21
3.188670
 31
0.0
  0
LINE
  5
188
100
AcDbEntity
  8
Text
 62
7
100
AcDbLine
 10
2.983890
 20
3.188670
 30
0.0
 11
3.028633
 21
3.188670
 31
0.0
  0
LINE
  5
189
100
AcDbEntity
  8
Text
 62
7
100
AcDbLine
 10
3.028633
 20
3.188670
 30
0.0
 11
3.028633
 21
3.138334
 31
0.0
  0
LINE
  5
18a
100
AcDbEntity
  8
Text
 62
7
100
AcDbLine
 10
3.028633
 20
3.138334
 30
0.0
 11
2.983890
 21
3.138334
 31
0.0
  0
LINE
  5
18b
100
AcDbEntity
  8
Text
 62
7
100
AcDbLine
 10
2.983890
 20
3.138334
 30
0.0
 11
2.983890
 21
3.028198
 31
0.0
  0
LINE
  5
18c
100
AcDbEntity
  8
Text
 62
7
100
AcDbLine
 10
2.983890
 20
3.028198
 30
0.0
 11
3.028633
 21
3.028198
 31
0.0
  0
LINE
  5
18d
100
AcDbEntity
  8
Text
 62
7
100
AcDbLine
 10
3.028633
 20
3.028198
 30
0.0
 11
3.055737
 21
2.962804
 31
0.0
  0
LINE
  5
18e
100
AcDbEntity
  8
Text
 62
7
100
AcDbLine
 10
3.055737
 20
2.962804
 30
0.0
 11
2.929682
 21
2.962804
 31
0.0
  0
SPLINE
  5
18f
100
AcDbEntity
  8
Text
 62
7
100
AcDbSpline
 70
8
 71
3
 72
8
 73
4
 74
0
 40
0
 40
0
 40
0
 40
0
 40
1
 40
1
 40
1
 40
1
 10
2.929682
 20
2.962804
 30
0.0
 10
2.922511
 20
2.962804
 30
0.0
 10
2.916201
 20
2.965815
 30
0.0
 10
2.910752
 20
2.971838
 30
0.0
  0
SPLINE
  5
190
100
AcDbEntity
  8
Text
 62
7
100
AcDbSpline
 70
8
 71
3
 72
8
 73
4
 74
0
 40
0
 40
0
 40
0
 40
0
 40
1
 40
1
 40
1
 40
1
 10
2.910752
 20
2.971838
 30
0.0
 10
2.905302
 20
2.977862
 30
0.0
 10
2.902578
 20
2.984889
 30
0.0
 10
2.902578
 20
2.992919
 30
0.0
  0
LINE
  5
191
100
AcDbEntity
  8
Text
 62
7
100
AcDbLine
 10
2.902578
 20
2.992919
 30
0.0
 11
2.902578
 21
3.138334
 31
0.0
  0
SPLINE
  5
192
100
AcDbEntity
  8
Text
 62
7
100
AcDbSpline
 70
8
 71
3
 72
8
 73
4
 74
0
 40
0
 40
0
 40
0
 40
0
 40
1
 40
1
 40
1
 40
1
 10
3.370175
 20
3.182868
 30
0.0
 10
3.370175
 20
3.172543
 30
0.0
 10
3.366447
 20
3.163651
 30
0.0
 10
3.358990
 20
3.156194
 30
0.0
  0
SPLINE
  5
193
100
AcDbEntity
  8
Text
 62
7
100
AcDbSpline
 70
8
 71
3
 72
8
 73
4
 74
0
 40
0
 40
0
 40
0
 40
0
 40
1
 40
1
 40
1
 40
1
 10
3.358990
 20
3.156194
 30
0.0
 10
3.351819
 20
3.149024
 30
0.0
 10
3.343071
 20
3.145439
 30
0.0
 10
3.332746
 20
3.145439
 30
0.0
  0
SPLINE
  5
194
100
AcDbEntity
  8
Text
 62
7
100
AcDbSpline
 70
8
 71
3
 72
8
 73
4
 74
0
 40
0
 40
0
 40
0
 40
0
 40
1
 40
1
 40
1
 40
1
 10
3.332746
 20
3.145439
 30
0.0
 10
3.327583
 20
3.145439
 30
0.0
 10
3.319839
 20
3.145582
 30
0.0
 10
3.309514
 20
3.145869
 30
0.0
  0
SPLINE
  5
195
100
AcDbEntity
  8
Text
 62
7
100
AcDbSpline
 70
8
 71
3
 72
8
 73
4
 74
0
 40
0
 40
0
 40
0
 40
0
 40
1
 40
1
 40
1
 40
1
 10
3.309514
 20
3.145869
 30
0.0
 10
3.299189
 20
3.146155
 30
0.0
 10
3.291445
 20
3.146299
 30
0.0
 10
3.286282
 20
3.146299
 30
0.0
  0
SPLINE
  5
196
100
AcDbEntity
  8
Text
 62
7
100
AcDbSpline
 70
8
 71
3
 72
8
 73
4
 74
0
 40
0
 40
0
 40
0
 40
0
 40
1
 40
1
 40
1
 40
1
 10
3.286282
 20
3.146299
 30
0.0
 10
3.265631
 20
3.146299
 30
0.0
 10
3.255306
 20
3.145008
 30
0.0
 10
3.255306
 20
3.142427
 30
0.0
  0
SPLINE
  5
197
100
AcDbEntity
  8
Text
 62
7
100
AcDbSpline
 70
8
 71
3
 72
8
 73
4
 74
0
 40
0
 40
0
 40
0
 40
0
 40
1
 40
1
 40
1
 40
1
 10
3.255306
 20
3.142427
 30
0.0
 10
3.255306
 20
3.140419
 30
0.0
 10
3.256884
 20
3.137121
 30
0.0
 10
3.260038
 20
3.132532
 30
0.0
  0
LINE
  5
198
100
AcDbEntity
  8
Text
 62
7
100
AcDbLine
 10
3.260038
 20
3.132532
 30
0.0
 11
3.366303
 21
2.983245
 31
0.0
  0
SPLINE
  5
199
100
AcDbEntity
  8
Text
 62
7
100
AcDbSpline
 70
8
 71
3
 72
8
 73
4
 74
0
 40
0
 40
0
 40
0
 40
0
 40
1
 40
1
 40
1
 40
1
 10
3.366303
 20
2.983245
 30
0.0
 10
3.368598
 20
2.980090
 30
0.0
 10
3.369745
 20
2.976935
 30
0.0
 10
3.369745
 20
2.973780
 30
0.0
  0
SPLINE
  5
19a
100
AcDbEntity
  8
Text
 62
7
100
AcDbSpline
 70
8
 71
3
 72
8
 73
4
 74
0
 40
0
 40
0
 40
0
 40
0
 40
1
 40
1
 40
1
 40
1
 10
3.369745
 20
2.973780
 30
0.0
 10
3.369745
 20
2.969764
 30
0.0
 10
3.367594
 20
2.966036
 30
0.0
 10
3.363292
 20
2.962594
 30
0.0
  0
SPLINE
  5
19b
100
AcDbEntity
  8
Text
 62
7
100
AcDbSpline
 70
8
 71
3
 72
8
 73
4
 74
0
 40
0
 40
0
 40
0
 40
0
 40
1
 40
1
 40
1
 40
1
 10
3.363292
 20
2.962594
 30
0.0
 10
3.359276
 20
2.959152
 30
0.0
 10
3.355261
 20
2.957431
 30
0.0
 10
3.351246
 20
2.957431
 30
0.0
  0
SPLINE
  5
19c
100
AcDbEntity
  8
Text
 62
7
100
AcDbSpline
 70
8
 71
3
 72
8
 73
4
 74
0
 40
0
 40
0
 40
0
 40
0
 40
1
 40
1
 40
1
 40
1
 10
3.351246
 20
2.957431
 30
0.0
 10
3.346657
 20
2.957431
 30
0.0
 10
3.342785
 20
2.959726
 30
0.0
 10
3.339630
 20
2.964315
 30
0.0
  0
LINE
  5
19d
100
AcDbEntity
  8
Text
 62
7
100
AcDbLine
 10
3.339630
 20
2.964315
 30
0.0
 11
3.215295
 21
3.138555
 31
0.0
  0
SPLINE
  5
19e
100
AcDbEntity
  8
Text
 62
7
100
AcDbSpline
 70
8
 71
3
 72
8
 73
4
 74
0
 40
0
 40
0
 40
0
 40
0
 40
1
 40
1
 40
1
 40
1
 10
3.215295
 20
3.138555
 30
0.0
 10
3.210706
 20
3.144865
 30
0.0
 10
3.208412
 20
3.150601
 30
0.0
 10
3.208412
 20
3.155764
 30
0.0
  0
SPLINE
  5
19f
100
AcDbEntity
  8
Text
 62
7
100
AcDbSpline
 70
8
 71
3
 72
8
 73
4
 74
0
 40
0
 40
0
 40
0
 40
0
 40
1
 40
1
 40
1
 40
1
 10
3.208412
 20
3.155764
 30
0.0
 10
3.208412
 20
3.170105
 30
0.0
 10
3.218450
 20
3.177275
 30
0.0
 10
3.238527
 20
3.177275
 30
0.0
  0
LINE
  5
1a0
100
AcDbEntity
  8
Text
 62
7
100
AcDbLine
 10
3.238527
 20
3.177275
 30
0.0
 11
3.333176
 21
3.177275
 31
0.0
  0
SPLINE
  5
1a1
100
AcDbEntity
  8
Text
 62
7
100
AcDbSpline
 70
8
 71
3
 72
8
 73
4
 74
0
 40
0
 40
0
 40
0
 40
0
 40
1
 40
1
 40
1
 40
1
 10
3.333176
 20
3.177275
 30
0.0
 10
3.334897
 20
3.177275
 30
0.0
 10
3.336475
 20
3.178566
 30
0.0
 10
3.337909
 20
3.181147
 30
0.0
  0
LINE
  5
1a2
100
AcDbEntity
  8
Text
 62
7
100
AcDbLine
 10
3.337909
 20
3.181147
 30
0.0
 11
3.337909
 21
3.222879
 31
0.0
  0
SPLINE
  5
1a3
100
AcDbEntity
  8
Text
 62
7
100
AcDbSpline
 70
8
 71
3
 72
8
 73
4
 74
0
 40
0
 40
0
 40
0
 40
0
 40
1
 40
1
 40
1
 40
1
 10
3.337909
 20
3.222879
 30
0.0
 10
3.337909
 20
3.226894
 30
0.0
 10
3.336044
 20
3.228902
 30
0.0
 10
3.332316
 20
3.228902
 30
0.0
  0
LINE
  5
1a4
100
AcDbEntity
  8
Text
 62
7
100
AcDbLine
 10
3.332316
 20
3.228902
 30
0.0
 11
3.167111
 21
3.228902
 31
0.0
  0
SPLINE
  5
1a5
100
AcDbEntity
  8
Text
 62
7
100
AcDbSpline
 70
8
 71
3
 72
8
 73
4
 74
0
 40
0
 40
0
 40
0
 40
0
 40
1
 40
1
 40
1
 40
1
 10
3.167111
 20
3.228902
 30
0.0
 10
3.157072
 20
3.228902
 30
0.0
 10
3.152053
 20
3.224026
 30
0.0
 10
3.152053
 20
3.214274
 30
0.0
  0
LINE
  5
1a6
100
AcDbEntity
  8
Text
 62
7
100
AcDbLine
 10
3.152053
 20
3.214274
 30
0.0
 11
3.152053
 21
3.098114
 31
0.0
  0
SPLINE
  5
1a7
100
AcDbEntity
  8
Text
 62
7
100
AcDbSpline
 70
8
 71
3
 72
8
 73
4
 74
0
 40
0
 40
0
 40
0
 40
0
 40
1
 40
1
 40
1
 40
1
 10
3.152053
 20
3.098114
 30
0.0
 10
3.152053
 20
3.093238
 30
0.0
 10
3.156068
 20
3.087789
 30
0.0
 10
3.164099
 20
3.081766
 30
0.0
  0
SPLINE
  5
1a8
100
AcDbEntity
  8
Text
 62
7
100
AcDbSpline
 70
8
 71
3
 72
8
 73
4
 74
0
 40
0
 40
0
 40
0
 40
0
 40
1
 40
1
 40
1
 40
1
 10
3.164099
 20
3.081766
 30
0.0
 10
3.172417
 20
3.076030
 30
0.0
 10
3.176575
 20
3.066708
 30
0.0
 10
3.176575
 20
3.053801
 30
0.0
  0
LINE
  5
1a9
100
AcDbEntity
  8
Text
 62
7
100
AcDbLine
 10
3.176575
 20
3.053801
 30
0.0
 11
3.176575
 21
2.984105
 31
0.0
  0
SPLINE
  5
1aa
100
AcDbEntity
  8
Text
 62
7
100
AcDbSpline
 70
8
 71
3
 72
8
 73
4
 74
0
 40
0
 40
0
 40
0
 40
0
 40
1
 40
1
 40
1
 40
1
 10
3.176575
 20
2.984105
 30
0.0
 10
3.176575
 20
2.972059
 30
0.0
 10
3.173420
 20
2.964459
 30
0.0
 10
3.167111
 20
2.961304
 30
0.0
  0
SPLINE
  5
1ab
100
AcDbEntity
  8
Text
 62
7
100
AcDbSpline
 70
8
 71
3
 72
8
 73
4
 74
0
 40
0
 40
0
 40
0
 40
0
 40
1
 40
1
 40
1
 40
1
 10
3.167111
 20
2.961304
 30
0.0
 10
3.163382
 20
2.959583
 30
0.0
 10
3.154778
 20
2.958722
 30
0.0
 10
3.141297
 20
2.958722
 30
0.0
  0
SPLINE
  5
1ac
100
AcDbEntity
  8
Text
 62
7
100
AcDbSpline
 70
8
 71
3
 72
8
 73
4
 74
0
 40
0
 40
0
 40
0
 40
0
 40
1
 40
1
 40
1
 40
1
 10
3.141297
 20
2.958722
 30
0.0
 10
3.126956
 20
2.958722
 30
0.0
 10
3.119786
 20
2.963741
 30
0.0
 10
3.119786
 20
2.973780
 30
0.0
  0
LINE
  5
1ad
100
AcDbEntity
  8
Text
 62
7
100
AcDbLine
 10
3.119786
 20
2.973780
 30
0.0
 11
3.119786
 21
3.245680
 31
0.0
  0
SPLINE
  5
1ae
100
AcDbEntity
  8
Text
 62
7
100
AcDbSpline
 70
8
 71
3
 72
8
 73
4
 74
0
 40
0
 40
0
 40
0
 40
0
 40
1
 40
1
 40
1
 40
1
 10
3.119786
 20
3.245680
 30
0.0
 10
3.119786
 20
3.256006
 30
0.0
 10
3.124805
 20
3.261168
 30
0.0
 10
3.134844
 20
3.261168
 30
0.0
  0
LINE
  5
1af
100
AcDbEntity
  8
Text
 62
7
100
AcDbLine
 10
3.134844
 20
3.261168
 30
0.0
 11
3.332746
 21
3.261168
 31
0.0
  0
SPLINE
  5
1b0
100
AcDbEntity
  8
Text
 62
7
100
AcDbSpline
 70
8
 71
3
 72
8
 73
4
 74
0
 40
0
 40
0
 40
0
 40
0
 40
1
 40
1
 40
1
 40
1
 10
3.332746
 20
3.261168
 30
0.0
 10
3.343071
 20
3.261168
 30
0.0
 10
3.351819
 20
3.257440
 30
0.0
 10
3.358990
 20
3.249983
 30
0.0
  0
SPLINE
  5
1b1
100
AcDbEntity
  8
Text
 62
7
100
AcDbSpline
 70
8
 71
3
 72
8
 73
4
 74
0
 40
0
 40
0
 40
0
 40
0
 40
1
 40
1
 40
1
 40
1
 10
3.358990
 20
3.249983
 30
0.0
 10
3.366447
 20
3.242525
 30
0.0
 10
3.370175
 20
3.233634
 30
0.0
 10
3.370175
 20
3.223309
 30
0.0
  0
LINE
  5
1b2
100
AcDbEntity
  8
Text
 62
7
100
AcDbLine
 10
3.370175
 20
3.223309
 30
0.0
 11
3.370175
 21
3.182868
 31
0.0
  0
SPLINE
  5
1b3
100
AcDbEntity
  8
Text
 62
7
100
AcDbSpline
 70
8
 71
3
 72
8
 73
4
 74
0
 40
0
 40
0
 40
0
 40
0
 40
1
 40
1
 40
1
 40
1
 10
3.702253
 20
3.057673
 30
0.0
 10
3.702253
 20
3.030713
 30
0.0
 10
3.692645
 20
3.007624
 30
0.0
 10
3.673428
 20
2.988408
 30
0.0
  0
SPLINE
  5
1b4
100
AcDbEntity
  8
Text
 62
7
100
AcDbSpline
 70
8
 71
3
 72
8
 73
4
 74
0
 40
0
 40
0
 40
0
 40
0
 40
1
 40
1
 40
1
 40
1
 10
3.673428
 20
2.988408
 30
0.0
 10
3.654498
 20
2.969191
 30
0.0
 10
3.631410
 20
2.959583
 30
0.0
 10
3.604162
 20
2.959583
 30
0.0
  0
LINE
  5
1b5
100
AcDbEntity
  8
Text
 62
7
100
AcDbLine
 10
3.604162
 20
2.959583
 30
0.0
 11
3.498758
 21
2.959583
 31
0.0
  0
SPLINE
  5
1b6
100
AcDbEntity
  8
Text
 62
7
100
AcDbSpline
 70
8
 71
3
 72
8
 73
4
 74
0
 40
0
 40
0
 40
0
 40
0
 40
1
 40
1
 40
1
 40
1
 10
3.498758
 20
2.959583
 30
0.0
 10
3.471511
 20
2.959583
 30
0.0
 10
3.448422
 20
2.969048
 30
0.0
 10
3.429492
 20
2.987977
 30
0.0
  0
SPLINE
  5
1b7
100
AcDbEntity
  8
Text
 62
7
100
AcDbSpline
 70
8
 71
3
 72
8
 73
4
 74
0
 40
0
 40
0
 40
0
 40
0
 40
1
 40
1
 40
1
 40
1
 10
3.429492
 20
2.987977
 30
0.0
 10
3.410849
 20
3.007194
 30
0.0
 10
3.401528
 20
3.030426
 30
0.0
 10
3.401528
 20
3.057673
 30
0.0
  0
LINE
  5
1b8
100
AcDbEntity
  8
Text
 62
7
100
AcDbLine
 10
3.401528
 20
3.057673
 30
0.0
 11
3.401528
 21
3.163078
 31
0.0
  0
SPLINE
  5
1b9
100
AcDbEntity
  8
Text
 62
7
100
AcDbSpline
 70
8
 71
3
 72
8
 73
4
 74
0
 40
0
 40
0
 40
0
 40
0
 40
1
 40
1
 40
1
 40
1
 10
3.401528
 20
3.163078
 30
0.0
 10
3.401528
 20
3.190038
 30
0.0
 10
3.410993
 20
3.212984
 30
0.0
 10
3.429922
 20
3.231913
 30
0.0
  0
SPLINE
  5
1ba
100
AcDbEntity
  8
Text
 62
7
100
AcDbSpline
 70
8
 71
3
 72
8
 73
4
 74
0
 40
0
 40
0
 40
0
 40
0
 40
1
 40
1
 40
1
 40
1
 10
3.429922
 20
3.231913
 30
0.0
 10
3.448852
 20
3.251130
 30
0.0
 10
3.471797
 20
3.260738
 30
0.0
 10
3.498758
 20
3.260738
 30
0.0
  0
LINE
  5
1bb
100
AcDbEntity
  8
Text
 62
7
100
AcDbLine
 10
3.498758
 20
3.260738
 30
0.0
 11
3.604162
 21
3.260738
 31
0.0
  0
SPLINE
  5
1bc
100
AcDbEntity
  8
Text
 62
7
100
AcDbSpline
 70
8
 71
3
 72
8
 73
4
 74
0
 40
0
 40
0
 40
0
 40
0
 40
1
 40
1
 40
1
 40
1
 10
3.604162
 20
3.260738
 30
0.0
 10
3.631123
 20
3.260738
 30
0.0
 10
3.654212
 20
3.251130
 30
0.0
 10
3.673428
 20
3.231913
 30
0.0
  0
SPLINE
  5
1bd
100
AcDbEntity
  8
Text
 62
7
100
AcDbSpline
 70
8
 71
3
 72
8
 73
4
 74
0
 40
0
 40
0
 40
0
 40
0
 40
1
 40
1
 40
1
 40
1
 10
3.673428
 20
3.231913
 30
0.0
 10
3.692645
 20
3.212697
 30
0.0
 10
3.702253
 20
3.189752
 30
0.0
 10
3.702253
 20
3.163078
 30
0.0
  0
LINE
  5
1be
100
AcDbEntity
  8
Text
 62
7
100
AcDbLine
 10
3.702253
 20
3.163078
 30
0.0
 11
3.702253
 21
3.057673
 31
0.0
  0
SPLINE
  5
1bf
100
AcDbEntity
  8
Text
 62
7
100
AcDbSpline
 70
8
 71
3
 72
8
 73
4
 74
0
 40
0
 40
0
 40
0
 40
0
 40
1
 40
1
 40
1
 40
1
 10
3.670847
 20
3.089510
 30
0.0
 10
3.670847
 20
3.097541
 30
0.0
 10
3.670704
 20
3.109730
 30
0.0
 10
3.670417
 20
3.126079
 30
0.0
  0
SPLINE
  5
1c0
100
AcDbEntity
  8
Text
 62
7
100
AcDbSpline
 70
8
 71
3
 72
8
 73
4
 74
0
 40
0
 40
0
 40
0
 40
0
 40
1
 40
1
 40
1
 40
1
 10
3.670417
 20
3.126079
 30
0.0
 10
3.670130
 20
3.142427
 30
0.0
 10
3.669987
 20
3.154617
 30
0.0
 10
3.669987
 20
3.162648
 30
0.0
  0
SPLINE
  5
1c1
100
AcDbEntity
  8
Text
 62
7
100
AcDbSpline
 70
8
 71
3
 72
8
 73
4
 74
0
 40
0
 40
0
 40
0
 40
0
 40
1
 40
1
 40
1
 40
1
 10
3.669987
 20
3.162648
 30
0.0
 10
3.669987
 20
3.181004
 30
0.0
 10
3.663533
 20
3.196492
 30
0.0
 10
3.650627
 20
3.209112
 30
0.0
  0
SPLINE
  5
1c2
100
AcDbEntity
  8
Text
 62
7
100
AcDbSpline
 70
8
 71
3
 72
8
 73
4
 74
0
 40
0
 40
0
 40
0
 40
0
 40
1
 40
1
 40
1
 40
1
 10
3.650627
 20
3.209112
 30
0.0
 10
3.637720
 20
3.222018
 30
0.0
 10
3.622089
 20
3.228472
 30
0.0
 10
3.603733
 20
3.228472
 30
0.0
  0
LINE
  5
1c3
100
AcDbEntity
  8
Text
 62
7
100
AcDbLine
 10
3.603733
 20
3.228472
 30
0.0
 11
3.499189
 21
3.228472
 31
0.0
  0
SPLINE
  5
1c4
100
AcDbEntity
  8
Text
 62
7
100
AcDbSpline
 70
8
 71
3
 72
8
 73
4
 74
0
 40
0
 40
0
 40
0
 40
0
 40
1
 40
1
 40
1
 40
1
 10
3.499189
 20
3.228472
 30
0.0
 10
3.482553
 20
3.228472
 30
0.0
 10
3.467352
 20
3.222305
 30
0.0
 10
3.453585
 20
3.209972
 30
0.0
  0
SPLINE
  5
1c5
100
AcDbEntity
  8
Text
 62
7
100
AcDbSpline
 70
8
 71
3
 72
8
 73
4
 74
0
 40
0
 40
0
 40
0
 40
0
 40
1
 40
1
 40
1
 40
1
 10
3.453585
 20
3.209972
 30
0.0
 10
3.440105
 20
3.197926
 30
0.0
 10
3.433365
 20
3.183585
 30
0.0
 10
3.433365
 20
3.166950
 30
0.0
  0
SPLINE
  5
1c6
100
AcDbEntity
  8
Text
 62
7
100
AcDbSpline
 70
8
 71
3
 72
8
 73
4
 74
0
 40
0
 40
0
 40
0
 40
0
 40
1
 40
1
 40
1
 40
1
 10
3.433365
 20
3.166950
 30
0.0
 10
3.433365
 20
3.166090
 30
0.0
 10
3.433221
 20
3.158776
 30
0.0
 10
3.432935
 20
3.145009
 30
0.0
  0
SPLINE
  5
1c7
100
AcDbEntity
  8
Text
 62
7
100
AcDbSpline
 70
8
 71
3
 72
8
 73
4
 74
0
 40
0
 40
0
 40
0
 40
0
 40
1
 40
1
 40
1
 40
1
 10
3.432935
 20
3.145009
 30
0.0
 10
3.432648
 20
3.131528
 30
0.0
 10
3.432505
 20
3.120916
 30
0.0
 10
3.432505
 20
3.113172
 30
0.0
  0
SPLINE
  5
1c8
100
AcDbEntity
  8
Text
 62
7
100
AcDbSpline
 70
8
 71
3
 72
8
 73
4
 74
0
 40
0
 40
0
 40
0
 40
0
 40
1
 40
1
 40
1
 40
1
 10
3.432505
 20
3.113172
 30
0.0
 10
3.432505
 20
3.101986
 30
0.0
 10
3.433078
 20
3.094959
 30
0.0
 10
3.434226
 20
3.092091
 30
0.0
  0
SPLINE
  5
1c9
100
AcDbEntity
  8
Text
 62
7
100
AcDbSpline
 70
8
 71
3
 72
8
 73
4
 74
0
 40
0
 40
0
 40
0
 40
0
 40
1
 40
1
 40
1
 40
1
 10
3.434226
 20
3.092091
 30
0.0
 10
3.434512
 20
3.090657
 30
0.0
 10
3.436807
 20
3.088649
 30
0.0
 10
3.441109
 20
3.086068
 30
0.0
  0
SPLINE
  5
1ca
100
AcDbEntity
  8
Text
 62
7
100
AcDbSpline
 70
8
 71
3
 72
8
 73
4
 74
0
 40
0
 40
0
 40
0
 40
0
 40
1
 40
1
 40
1
 40
1
 10
3.441109
 20
3.086068
 30
0.0
 10
3.445985
 20
3.082626
 30
0.0
 10
3.449714
 20
3.079185
 30
0.0
 10
3.452295
 20
3.075743
 30
0.0
  0
SPLINE
  5
1cb
100
AcDbEntity
  8
Text
 62
7
100
AcDbSpline
 70
8
 71
3
 72
8
 73
4
 74
0
 40
0
 40
0
 40
0
 40
0
 40
1
 40
1
 40
1
 40
1
 10
3.452295
 20
3.075743
 30
0.0
 10
3.456023
 20
3.070006
 30
0.0
 10
3.457888
 20
3.062693
 30
0.0
 10
3.457888
 20
3.053801
 30
0.0
  0
LINE
  5
1cc
100
AcDbEntity
  8
Text
 62
7
100
AcDbLine
 10
3.457888
 20
3.053801
 30
0.0
 11
3.457888
 21
3.019814
 31
0.0
  0
SPLINE
  5
1cd
100
AcDbEntity
  8
Text
 62
7
100
AcDbSpline
 70
8
 71
3
 72
8
 73
4
 74
0
 40
0
 40
0
 40
0
 40
0
 40
1
 40
1
 40
1
 40
1
 10
3.457888
 20
3.019814
 30
0.0
 10
3.457888
 20
3.012070
 30
0.0
 10
3.458605
 20
3.007051
 30
0.0
 10
3.460039
 20
3.004756
 30
0.0
  0
SPLINE
  5
1ce
100
AcDbEntity
  8
Text
 62
7
100
AcDbSpline
 70
8
 71
3
 72
8
 73
4
 74
0
 40
0
 40
0
 40
0
 40
0
 40
1
 40
1
 40
1
 40
1
 10
3.460039
 20
3.004756
 30
0.0
 10
3.461473
 20
3.002748
 30
0.0
 10
3.466062
 20
3.000024
 30
0.0
 10
3.473806
 20
2.996582
 30
0.0
  0
SPLINE
  5
1cf
100
AcDbEntity
  8
Text
 62
7
100
AcDbSpline
 70
8
 71
3
 72
8
 73
4
 74
0
 40
0
 40
0
 40
0
 40
0
 40
1
 40
1
 40
1
 40
1
 10
3.473806
 20
2.996582
 30
0.0
 10
3.481837
 20
2.993427
 30
0.0
 10
3.490298
 20
2.991849
 30
0.0
 10
3.499189
 20
2.991849
 30
0.0
  0
LINE
  5
1d0
100
AcDbEntity
  8
Text
 62
7
100
AcDbLine
 10
3.499189
 20
2.991849
 30
0.0
 11
3.603733
 21
2.991849
 31
0.0
  0
SPLINE
  5
1d1
100
AcDbEntity
  8
Text
 62
7
100
AcDbSpline
 70
8
 71
3
 72
8
 73
4
 74
0
 40
0
 40
0
 40
0
 40
0
 40
1
 40
1
 40
1
 40
1
 10
3.603733
 20
2.991849
 30
0.0
 10
3.621515
 20
2.991849
 30
0.0
 10
3.636717
 20
2.997729
 30
0.0
 10
3.649336
 20
3.009489
 30
0.0
  0
SPLINE
  5
1d2
100
AcDbEntity
  8
Text
 62
7
100
AcDbSpline
 70
8
 71
3
 72
8
 73
4
 74
0
 40
0
 40
0
 40
0
 40
0
 40
1
 40
1
 40
1
 40
1
 10
3.649336
 20
3.009489
 30
0.0
 10
3.661956
 20
3.021535
 30
0.0
 10
3.668840
 20
3.036449
 30
0.0
 10
3.669987
 20
3.054232
 30
0.0
  0
SPLINE
  5
1d3
100
AcDbEntity
  8
Text
 62
7
100
AcDbSpline
 70
8
 71
3
 72
8
 73
4
 74
0
 40
0
 40
0
 40
0
 40
0
 40
1
 40
1
 40
1
 40
1
 10
3.669987
 20
3.054232
 30
0.0
 10
3.670561
 20
3.062262
 30
0.0
 10
3.670848
 20
3.074022
 30
0.0
 10
3.670848
 20
3.089510
 30
0.0
  0
LINE
  5
1d4
100
AcDbEntity
  8
Text
 62
7
100
AcDbLine
 10
3.670848
 20
3.089510
 30
0.0
 11
3.670847
 21
3.089510
 31
0.0
  0
SPLINE
  5
1d5
100
AcDbEntity
  8
Text
 62
7
100
AcDbSpline
 70
8
 71
3
 72
8
 73
4
 74
0
 40
0
 40
0
 40
0
 40
0
 40
1
 40
1
 40
1
 40
1
 10
3.992411
 20
3.007337
 30
0.0
 10
3.992411
 20
2.993857
 30
0.0
 10
3.987822
 20
2.982241
 30
0.0
 10
3.978644
 20
2.972489
 30
0.0
  0
SPLINE
  5
1d6
100
AcDbEntity
  8
Text
 62
7
100
AcDbSpline
 70
8
 71
3
 72
8
 73
4
 74
0
 40
0
 40
0
 40
0
 40
0
 40
1
 40
1
 40
1
 40
1
 10
3.978644
 20
2.972489
 30
0.0
 10
3.969753
 20
2.963025
 30
0.0
 10
3.958567
 20
2.958292
 30
0.0
 10
3.945087
 20
2.958292
 30
0.0
  0
LINE
  5
1d7
100
AcDbEntity
  8
Text
 62
7
100
AcDbLine
 10
3.945087
 20
2.958292
 30
0.0
 11
3.757080
 21
2.958292
 31
0.0
  0
SPLINE
  5
1d8
100
AcDbEntity
  8
Text
 62
7
100
AcDbSpline
 70
8
 71
3
 72
8
 73
4
 74
0
 40
0
 40
0
 40
0
 40
0
 40
1
 40
1
 40
1
 40
1
 10
3.757080
 20
2.958292
 30
0.0
 10
3.746181
 20
2.958292
 30
0.0
 10
3.740731
 20
2.963455
 30
0.0
 10
3.740731
 20
2.973780
 30
0.0
  0
LINE
  5
1d9
100
AcDbEntity
  8
Text
 62
7
100
AcDbLine
 10
3.740731
 20
2.973780
 30
0.0
 11
3.740731
 21
3.182868
 31
0.0
  0
SPLINE
  5
1da
100
AcDbEntity
  8
Text
 62
7
100
AcDbSpline
 70
8
 71
3
 72
8
 73
4
 74
0
 40
0
 40
0
 40
0
 40
0
 40
1
 40
1
 40
1
 40
1
 10
3.740731
 20
3.182868
 30
0.0
 10
3.740731
 20
3.193480
 30
0.0
 10
3.746037
 20
3.198786
 30
0.0
 10
3.756649
 20
3.198786
 30
0.0
  0
SPLINE
  5
1db
100
AcDbEntity
  8
Text
 62
7
100
AcDbSpline
 70
8
 71
3
 72
8
 73
4
 74
0
 40
0
 40
0
 40
0
 40
0
 40
1
 40
1
 40
1
 40
1
 10
3.756649
 20
3.198786
 30
0.0
 10
3.767548
 20
3.198786
 30
0.0
 10
3.772998
 20
3.193480
 30
0.0
 10
3.772998
 20
3.182868
 30
0.0
  0
LINE
  5
1dc
100
AcDbEntity
  8
Text
 62
7
100
AcDbLine
 10
3.772998
 20
3.182868
 30
0.0
 11
3.772998
 21
3.102417
 31
0.0
  0
SPLINE
  5
1dd
100
AcDbEntity
  8
Text
 62
7
100
AcDbSpline
 70
8
 71
3
 72
8
 73
4
 74
0
 40
0
 40
0
 40
0
 40
0
 40
1
 40
1
 40
1
 40
1
 10
3.772998
 20
3.102417
 30
0.0
 10
3.772998
 20
3.096107
 30
0.0
 10
3.777013
 20
3.089366
 30
0.0
 10
3.785044
 20
3.082196
 30
0.0
  0
SPLINE
  5
1de
100
AcDbEntity
  8
Text
 62
7
100
AcDbSpline
 70
8
 71
3
 72
8
 73
4
 74
0
 40
0
 40
0
 40
0
 40
0
 40
1
 40
1
 40
1
 40
1
 10
3.785044
 20
3.082196
 30
0.0
 10
3.793362
 20
3.075026
 30
0.0
 10
3.797520
 20
3.065561
 30
0.0
 10
3.797520
 20
3.053801
 30
0.0
  0
LINE
  5
1df
100
AcDbEntity
  8
Text
 62
7
100
AcDbLine
 10
3.797520
 20
3.053801
 30
0.0
 11
3.797520
 21
3.008628
 31
0.0
  0
SPLINE
  5
1e0
100
AcDbEntity
  8
Text
 62
7
100
AcDbSpline
 70
8
 71
3
 72
8
 73
4
 74
0
 40
0
 40
0
 40
0
 40
0
 40
1
 40
1
 40
1
 40
1
 10
3.797520
 20
3.008628
 30
0.0
 10
3.797520
 20
2.996582
 30
0.0
 10
3.802540
 20
2.990559
 30
0.0
 10
3.812578
 20
2.990559
 30
0.0
  0
LINE
  5
1e1
100
AcDbEntity
  8
Text
 62
7
100
AcDbLine
 10
3.812578
 20
2.990559
 30
0.0
 11
3.947238
 21
2.990559
 31
0.0
  0
SPLINE
  5
1e2
100
AcDbEntity
  8
Text
 62
7
100
AcDbSpline
 70
8
 71
3
 72
8
 73
4
 74
0
 40
0
 40
0
 40
0
 40
0
 40
1
 40
1
 40
1
 40
1
 10
3.947238
 20
2.990559
 30
0.0
 10
3.954695
 20
2.991419
 30
0.0
 10
3.958997
 20
2.996152
 30
0.0
 10
3.960144
 20
3.004756
 30
0.0
  0
LINE
  5
1e3
100
AcDbEntity
  8
Text
 62
7
100
AcDbLine
 10
3.960144
 20
3.004756
 30
0.0
 11
3.960144
 21
3.079185
 31
0.0
  0
SPLINE
  5
1e4
100
AcDbEntity
  8
Text
 62
7
100
AcDbSpline
 70
8
 71
3
 72
8
 73
4
 74
0
 40
0
 40
0
 40
0
 40
0
 40
1
 40
1
 40
1
 40
1
 10
3.960144
 20
3.079185
 30
0.0
 10
3.960144
 20
3.086355
 30
0.0
 10
3.956129
 20
3.090944
 30
0.0
 10
3.948098
 20
3.092952
 30
0.0
  0
LINE
  5
1e5
100
AcDbEntity
  8
Text
 62
7
100
AcDbLine
 10
3.948098
 20
3.092952
 30
0.0
 11
3.825915
 21
3.092952
 31
0.0
  0
SPLINE
  5
1e6
100
AcDbEntity
  8
Text
 62
7
100
AcDbSpline
 70
8
 71
3
 72
8
 73
4
 74
0
 40
0
 40
0
 40
0
 40
0
 40
1
 40
1
 40
1
 40
1
 10
3.825915
 20
3.092952
 30
0.0
 10
3.810714
 20
3.092952
 30
0.0
 10
3.803113
 20
3.098401
 30
0.0
 10
3.803113
 20
3.109300
 30
0.0
  0
SPLINE
  5
1e7
100
AcDbEntity
  8
Text
 62
7
100
AcDbSpline
 70
8
 71
3
 72
8
 73
4
 74
0
 40
0
 40
0
 40
0
 40
0
 40
1
 40
1
 40
1
 40
1
 10
3.803113
 20
3.109300
 30
0.0
 10
3.803113
 20
3.114750
 30
0.0
 10
3.805695
 20
3.118908
 30
0.0
 10
3.810857
 20
3.121777
 30
0.0
  0
LINE
  5
1e8
100
AcDbEntity
  8
Text
 62
7
100
AcDbLine
 10
3.810857
 20
3.121777
 30
0.0
 11
3.900344
 21
3.171682
 31
0.0
  0
SPLINE
  5
1e9
100
AcDbEntity
  8
Text
 62
7
100
AcDbSpline
 70
8
 71
3
 72
8
 73
4
 74
0
 40
0
 40
0
 40
0
 40
0
 40
1
 40
1
 40
1
 40
1
 10
3.900344
 20
3.171682
 30
0.0
 10
3.909808
 20
3.176845
 30
0.0
 10
3.916262
 20
3.181434
 30
0.0
 10
3.919704
 20
3.185449
 30
0.0
  0
SPLINE
  5
1ea
100
AcDbEntity
  8
Text
 62
7
100
AcDbSpline
 70
8
 71
3
 72
8
 73
4
 74
0
 40
0
 40
0
 40
0
 40
0
 40
1
 40
1
 40
1
 40
1
 10
3.919704
 20
3.185449
 30
0.0
 10
3.924866
 20
3.190899
 30
0.0
 10
3.927448
 20
3.198213
 30
0.0
 10
3.927448
 20
3.207391
 30
0.0
  0
SPLINE
  5
1eb
100
AcDbEntity
  8
Text
 62
7
100
AcDbSpline
 70
8
 71
3
 72
8
 73
4
 74
0
 40
0
 40
0
 40
0
 40
0
 40
1
 40
1
 40
1
 40
1
 10
3.927448
 20
3.207391
 30
0.0
 10
3.927448
 20
3.212553
 30
0.0
 10
3.926013
 20
3.217142
 30
0.0
 10
3.923145
 20
3.221158
 30
0.0
  0
SPLINE
  5
1ec
100
AcDbEntity
  8
Text
 62
7
100
AcDbSpline
 70
8
 71
3
 72
8
 73
4
 74
0
 40
0
 40
0
 40
0
 40
0
 40
1
 40
1
 40
1
 40
1
 10
3.923145
 20
3.221158
 30
0.0
 10
3.920277
 20
3.225460
 30
0.0
 10
3.916405
 20
3.227611
 30
0.0
 10
3.911529
 20
3.227611
 30
0.0
  0
LINE
  5
1ed
100
AcDbEntity
  8
Text
 62
7
100
AcDbLine
 10
3.911529
 20
3.227611
 30
0.0
 11
3.756219
 21
3.227611
 31
0.0
  0
SPLINE
  5
1ee
100
AcDbEntity
  8
Text
 62
7
100
AcDbSpline
 70
8
 71
3
 72
8
 73
4
 74
0
 40
0
 40
0
 40
0
 40
0
 40
1
 40
1
 40
1
 40
1
 10
3.756219
 20
3.227611
 30
0.0
 10
3.746467
 20
3.227611
 30
0.0
 10
3.741592
 20
3.233061
 30
0.0
 10
3.741592
 20
3.243960
 30
0.0
  0
SPLINE
  5
1ef
100
AcDbEntity
  8
Text
 62
7
100
AcDbSpline
 70
8
 71
3
 72
8
 73
4
 74
0
 40
0
 40
0
 40
0
 40
0
 40
1
 40
1
 40
1
 40
1
 10
3.741592
 20
3.243960
 30
0.0
 10
3.741592
 20
3.254859
 30
0.0
 10
3.746467
 20
3.260308
 30
0.0
 10
3.756219
 20
3.260308
 30
0.0
  0
LINE
  5
1f0
100
AcDbEntity
  8
Text
 62
7
100
AcDbLine
 10
3.756219
 20
3.260308
 30
0.0
 11
3.912820
 21
3.260308
 31
0.0
  0
SPLINE
  5
1f1
100
AcDbEntity
  8
Text
 62
7
100
AcDbSpline
 70
8
 71
3
 72
8
 73
4
 74
0
 40
0
 40
0
 40
0
 40
0
 40
1
 40
1
 40
1
 40
1
 10
3.912820
 20
3.260308
 30
0.0
 10
3.922285
 20
3.260308
 30
0.0
 10
3.932467
 20
3.256293
 30
0.0
 10
3.943366
 20
3.248262
 30
0.0
  0
SPLINE
  5
1f2
100
AcDbEntity
  8
Text
 62
7
100
AcDbSpline
 70
8
 71
3
 72
8
 73
4
 74
0
 40
0
 40
0
 40
0
 40
0
 40
1
 40
1
 40
1
 40
1
 10
3.943366
 20
3.248262
 30
0.0
 10
3.954552
 20
3.239371
 30
0.0
 10
3.960144
 20
3.225603
 30
0.0
 10
3.960144
 20
3.206961
 30
0.0
  0
SPLINE
  5
1f3
100
AcDbEntity
  8
Text
 62
7
100
AcDbSpline
 70
8
 71
3
 72
8
 73
4
 74
0
 40
0
 40
0
 40
0
 40
0
 40
1
 40
1
 40
1
 40
1
 10
3.960144
 20
3.206961
 30
0.0
 10
3.960144
 20
3.196635
 30
0.0
 10
3.958854
 20
3.186740
 30
0.0
 10
3.956273
 20
3.177275
 30
0.0
  0
SPLINE
  5
1f4
100
AcDbEntity
  8
Text
 62
7
100
AcDbSpline
 70
8
 71
3
 72
8
 73
4
 74
0
 40
0
 40
0
 40
0
 40
0
 40
1
 40
1
 40
1
 40
1
 10
3.956273
 20
3.177275
 30
0.0
 10
3.953691
 20
3.168097
 30
0.0
 10
3.942792
 20
3.157915
 30
0.0
 10
3.923576
 20
3.146729
 30
0.0
  0
SPLINE
  5
1f5
100
AcDbEntity
  8
Text
 62
7
100
AcDbSpline
 70
8
 71
3
 72
8
 73
4
 74
0
 40
0
 40
0
 40
0
 40
0
 40
1
 40
1
 40
1
 40
1
 10
3.923576
 20
3.146729
 30
0.0
 10
3.904646
 20
3.135830
 30
0.0
 10
3.895181
 20
3.129664
 30
0.0
 10
3.895181
 20
3.128230
 30
0.0
  0
SPLINE
  5
1f6
100
AcDbEntity
  8
Text
 62
7
100
AcDbSpline
 70
8
 71
3
 72
8
 73
4
 74
0
 40
0
 40
0
 40
0
 40
0
 40
1
 40
1
 40
1
 40
1
 10
3.895181
 20
3.128230
 30
0.0
 10
3.895181
 20
3.126509
 30
0.0
 10
3.898479
 20
3.125362
 30
0.0
 10
3.905076
 20
3.124788
 30
0.0
  0
SPLINE
  5
1f7
100
AcDbEntity
  8
Text
 62
7
100
AcDbSpline
 70
8
 71
3
 72
8
 73
4
 74
0
 40
0
 40
0
 40
0
 40
0
 40
1
 40
1
 40
1
 40
1
 10
3.905076
 20
3.124788
 30
0.0
 10
3.909665
 20
3.124501
 30
0.0
 10
3.916549
 20
3.124501
 30
0.0
 10
3.925727
 20
3.124788
 30
0.0
  0
SPLINE
  5
1f8
100
AcDbEntity
  8
Text
 62
7
100
AcDbSpline
 70
8
 71
3
 72
8
 73
4
 74
0
 40
0
 40
0
 40
0
 40
0
 40
1
 40
1
 40
1
 40
1
 10
3.925727
 20
3.124788
 30
0.0
 10
3.938633
 20
3.125075
 30
0.0
 10
3.945087
 20
3.125218
 30
0.0
 10
3.945087
 20
3.125218
 30
0.0
  0
SPLINE
  5
1f9
100
AcDbEntity
  8
Text
 62
7
100
AcDbSpline
 70
8
 71
3
 72
8
 73
4
 74
0
 40
0
 40
0
 40
0
 40
0
 40
1
 40
1
 40
1
 40
1
 10
3.945087
 20
3.125218
 30
0.0
 10
3.958280
 20
3.125218
 30
0.0
 10
3.969466
 20
3.120343
 30
0.0
 10
3.978644
 20
3.110591
 30
0.0
  0
SPLINE
  5
1fa
100
AcDbEntity
  8
Text
 62
7
100
AcDbSpline
 70
8
 71
3
 72
8
 73
4
 74
0
 40
0
 40
0
 40
0
 40
0
 40
1
 40
1
 40
1
 40
1
 10
3.978644
 20
3.110591
 30
0.0
 10
3.987822
 20
3.100839
 30
0.0
 10
3.992411
 20
3.089367
 30
0.0
 10
3.992411
 20
3.076173
 30
0.0
  0
LINE
  5
1fb
100
AcDbEntity
  8
Text
 62
7
100
AcDbLine
 10
3.992411
 20
3.076173
 30
0.0
 11
3.992411
 21
3.007337
 31
0.0
  0
SPLINE
  5
1fc
100
AcDbEntity
  8
Text
 62
7
100
AcDbSpline
 70
8
 71
3
 72
8
 73
4
 74
0
 40
0
 40
0
 40
0
 40
0
 40
1
 40
1
 40
1
 40
1
 10
4.324899
 20
3.057673
 30
0.0
 10
4.324899
 20
3.030713
 30
0.0
 10
4.315291
 20
3.007624
 30
0.0
 10
4.296074
 20
2.988408
 30
0.0
  0
SPLINE
  5
1fd
100
AcDbEntity
  8
Text
 62
7
100
AcDbSpline
 70
8
 71
3
 72
8
 73
4
 74
0
 40
0
 40
0
 40
0
 40
0
 40
1
 40
1
 40
1
 40
1
 10
4.296074
 20
2.988408
 30
0.0
 10
4.277144
 20
2.969191
 30
0.0
 10
4.254056
 20
2.959583
 30
0.0
 10
4.226808
 20
2.959583
 30
0.0
  0
LINE
  5
1fe
100
AcDbEntity
  8
Text
 62
7
100
AcDbLine
 10
4.226808
 20
2.959583
 30
0.0
 11
4.121404
 21
2.959583
 31
0.0
  0
SPLINE
  5
1ff
100
AcDbEntity
  8
Text
 62
7
100
AcDbSpline
 70
8
 71
3
 72
8
 73
4
 74
0
 40
0
 40
0
 40
0
 40
0
 40
1
 40
1
 40
1
 40
1
 10
4.121404
 20
2.959583
 30
0.0
 10
4.094156
 20
2.959583
 30
0.0
 10
4.071068
 20
2.969048
 30
0.0
 10
4.052138
 20
2.987977
 30
0.0
  0
SPLINE
  5
200
100
AcDbEntity
  8
Text
 62
7
100
AcDbSpline
 70
8
 71
3
 72
8
 73
4
 74
0
 40
0
 40
0
 40
0
 40
0
 40
1
 40
1
 40
1
 40
1
 10
4.052138
 20
2.987977
 30
0.0
 10
4.033495
 20
3.007194
 30
0.0
 10
4.024174
 20
3.030426
 30
0.0
 10
4.024174
 20
3.057673
 30
0.0
  0
LINE
  5
201
100
AcDbEntity
  8
Text
 62
7
100
AcDbLine
 10
4.024174
 20
3.057673
 30
0.0
 11
4.024174
 21
3.163078
 31
0.0
  0
SPLINE
  5
202
100
AcDbEntity
  8
Text
 62
7
100
AcDbSpline
 70
8
 71
3
 72
8
 73
4
 74
0
 40
0
 40
0
 40
0
 40
0
 40
1
 40
1
 40
1
 40
1
 10
4.024174
 20
3.163078
 30
0.0
 10
4.024174
 20
3.190038
 30
0.0
 10
4.033638
 20
3.212984
 30
0.0
 10
4.052568
 20
3.231913
 30
0.0
  0
SPLINE
  5
203
100
AcDbEntity
  8
Text
 62
7
100
AcDbSpline
 70
8
 71
3
 72
8
 73
4
 74
0
 40
0
 40
0
 40
0
 40
0
 40
1
 40
1
 40
1
 40
1
 10
4.052568
 20
3.231913
 30
0.0
 10
4.071498
 20
3.251130
 30
0.0
 10
4.094443
 20
3.260738
 30
0.0
 10
4.121404
 20
3.260738
 30
0.0
  0
LINE
  5
204
100
AcDbEntity
  8
Text
 62
7
100
AcDbLine
 10
4.121404
 20
3.260738
 30
0.0
 11
4.226808
 21
3.260738
 31
0.0
  0
SPLINE
  5
205
100
AcDbEntity
  8
Text
 62
7
100
AcDbSpline
 70
8
 71
3
 72
8
 73
4
 74
0
 40
0
 40
0
 40
0
 40
0
 40
1
 40
1
 40
1
 40
1
 10
4.226808
 20
3.260738
 30
0.0
 10
4.253769
 20
3.260738
 30
0.0
 10
4.276857
 20
3.251130
 30
0.0
 10
4.296074
 20
3.231913
 30
0.0
  0
SPLINE
  5
206
100
AcDbEntity
  8
Text
 62
7
100
AcDbSpline
 70
8
 71
3
 72
8
 73
4
 74
0
 40
0
 40
0
 40
0
 40
0
 40
1
 40
1
 40
1
 40
1
 10
4.296074
 20
3.231913
 30
0.0
 10
4.315291
 20
3.212697
 30
0.0
 10
4.324899
 20
3.189752
 30
0.0
 10
4.324899
 20
3.163078
 30
0.0
  0
LINE
  5
207
100
AcDbEntity
  8
Text
 62
7
100
AcDbLine
 10
4.324899
 20
3.163078
 30
0.0
 11
4.324899
 21
3.057673
 31
0.0
  0
SPLINE
  5
208
100
AcDbEntity
  8
Text
 62
7
100
AcDbSpline
 70
8
 71
3
 72
8
 73
4
 74
0
 40
0
 40
0
 40
0
 40
0
 40
1
 40
1
 40
1
 40
1
 10
4.293492
 20
3.089510
 30
0.0
 10
4.293492
 20
3.097541
 30
0.0
 10
4.293350
 20
3.109730
 30
0.0
 10
4.293064
 20
3.126079
 30
0.0
  0
SPLINE
  5
209
100
AcDbEntity
  8
Text
 62
7
100
AcDbSpline
 70
8
 71
3
 72
8
 73
4
 74
0
 40
0
 40
0
 40
0
 40
0
 40
1
 40
1
 40
1
 40
1
 10
4.293064
 20
3.126079
 30
0.0
 10
4.292779
 20
3.142427
 30
0.0
 10
4.292636
 20
3.154617
 30
0.0
 10
4.292636
 20
3.162648
 30
0.0
  0
SPLINE
  5
20a
100
AcDbEntity
  8
Text
 62
7
100
AcDbSpline
 70
8
 71
3
 72
8
 73
4
 74
0
 40
0
 40
0
 40
0
 40
0
 40
1
 40
1
 40
1
 40
1
 10
4.292636
 20
3.162648
 30
0.0
 10
4.292636
 20
3.181004
 30
0.0
 10
4.286182
 20
3.196492
 30
0.0
 10
4.273276
 20
3.209112
 30
0.0
  0
SPLINE
  5
20b
100
AcDbEntity
  8
Text
 62
7
100
AcDbSpline
 70
8
 71
3
 72
8
 73
4
 74
0
 40
0
 40
0
 40
0
 40
0
 40
1
 40
1
 40
1
 40
1
 10
4.273276
 20
3.209112
 30
0.0
 10
4.260369
 20
3.222018
 30
0.0
 10
4.244738
 20
3.228472
 30
0.0
 10
4.226382
 20
3.228472
 30
0.0
  0
LINE
  5
20c
100
AcDbEntity
  8
Text
 62
7
100
AcDbLine
 10
4.226382
 20
3.228472
 30
0.0
 11
4.121837
 21
3.228472
 31
0.0
  0
SPLINE
  5
20d
100
AcDbEntity
  8
Text
 62
7
100
AcDbSpline
 70
8
 71
3
 72
8
 73
4
 74
0
 40
0
 40
0
 40
0
 40
0
 40
1
 40
1
 40
1
 40
1
 10
4.121837
 20
3.228472
 30
0.0
 10
4.105202
 20
3.228472
 30
0.0
 10
4.090001
 20
3.222305
 30
0.0
 10
4.076234
 20
3.209972
 30
0.0
  0
SPLINE
  5
20e
100
AcDbEntity
  8
Text
 62
7
100
AcDbSpline
 70
8
 71
3
 72
8
 73
4
 74
0
 40
0
 40
0
 40
0
 40
0
 40
1
 40
1
 40
1
 40
1
 10
4.076234
 20
3.209972
 30
0.0
 10
4.062754
 20
3.197926
 30
0.0
 10
4.056013
 20
3.183585
 30
0.0
 10
4.056013
 20
3.166950
 30
0.0
  0
SPLINE
  5
20f
100
AcDbEntity
  8
Text
 62
7
100
AcDbSpline
 70
8
 71
3
 72
8
 73
4
 74
0
 40
0
 40
0
 40
0
 40
0
 40
1
 40
1
 40
1
 40
1
 10
4.056013
 20
3.166950
 30
0.0
 10
4.056013
 20
3.166090
 30
0.0
 10
4.055870
 20
3.158776
 30
0.0
 10
4.055583
 20
3.145009
 30
0.0
  0
SPLINE
  5
210
100
AcDbEntity
  8
Text
 62
7
100
AcDbSpline
 70
8
 71
3
 72
8
 73
4
 74
0
 40
0
 40
0
 40
0
 40
0
 40
1
 40
1
 40
1
 40
1
 10
4.055583
 20
3.145009
 30
0.0
 10
4.055297
 20
3.131528
 30
0.0
 10
4.055153
 20
3.120916
 30
0.0
 10
4.055153
 20
3.113172
 30
0.0
  0
SPLINE
  5
211
100
AcDbEntity
  8
Text
 62
7
100
AcDbSpline
 70
8
 71
3
 72
8
 73
4
 74
0
 40
0
 40
0
 40
0
 40
0
 40
1
 40
1
 40
1
 40
1
 10
4.055153
 20
3.113172
 30
0.0
 10
4.055153
 20
3.101986
 30
0.0
 10
4.055727
 20
3.094959
 30
0.0
 10
4.056874
 20
3.092091
 30
0.0
  0
SPLINE
  5
212
100
AcDbEntity
  8
Text
 62
7
100
AcDbSpline
 70
8
 71
3
 72
8
 73
4
 74
0
 40
0
 40
0
 40
0
 40
0
 40
1
 40
1
 40
1
 40
1
 10
4.056874
 20
3.092091
 30
0.0
 10
4.057161
 20
3.090657
 30
0.0
 10
4.059455
 20
3.088649
 30
0.0
 10
4.063758
 20
3.086068
 30
0.0
  0
SPLINE
  5
213
100
AcDbEntity
  8
Text
 62
7
100
AcDbSpline
 70
8
 71
3
 72
8
 73
4
 74
0
 40
0
 40
0
 40
0
 40
0
 40
1
 40
1
 40
1
 40
1
 10
4.063758
 20
3.086068
 30
0.0
 10
4.068634
 20
3.082626
 30
0.0
 10
4.072362
 20
3.079185
 30
0.0
 10
4.074944
 20
3.075743
 30
0.0
  0
SPLINE
  5
214
100
AcDbEntity
  8
Text
 62
7
100
AcDbSpline
 70
8
 71
3
 72
8
 73
4
 74
0
 40
0
 40
0
 40
0
 40
0
 40
1
 40
1
 40
1
 40
1
 10
4.074944
 20
3.075743
 30
0.0
 10
4.078672
 20
3.070006
 30
0.0
 10
4.080537
 20
3.062693
 30
0.0
 10
4.080537
 20
3.053801
 30
0.0
  0
LINE
  5
215
100
AcDbEntity
  8
Text
 62
7
100
AcDbLine
 10
4.080537
 20
3.053801
 30
0.0
 11
4.080537
 21
3.019814
 31
0.0
  0
SPLINE
  5
216
100
AcDbEntity
  8
Text
 62
7
100
AcDbSpline
 70
8
 71
3
 72
8
 73
4
 74
0
 40
0
 40
0
 40
0
 40
0
 40
1
 40
1
 40
1
 40
1
 10
4.080537
 20
3.019814
 30
0.0
 10
4.080537
 20
3.012070
 30
0.0
 10
4.081254
 20
3.007051
 30
0.0
 10
4.082687
 20
3.004756
 30
0.0
  0
SPLINE
  5
217
100
AcDbEntity
  8
Text
 62
7
100
AcDbSpline
 70
8
 71
3
 72
8
 73
4
 74
0
 40
0
 40
0
 40
0
 40
0
 40
1
 40
1
 40
1
 40
1
 10
4.082687
 20
3.004756
 30
0.0
 10
4.084121
 20
3.002748
 30
0.0
 10
4.088711
 20
3.000024
 30
0.0
 10
4.096455
 20
2.996582
 30
0.0
  0
SPLINE
  5
218
100
AcDbEntity
  8
Text
 62
7
100
AcDbSpline
 70
8
 71
3
 72
8
 73
4
 74
0
 40
0
 40
0
 40
0
 40
0
 40
1
 40
1
 40
1
 40
1
 10
4.096455
 20
2.996582
 30
0.0
 10
4.104485
 20
2.993427
 30
0.0
 10
4.112946
 20
2.991849
 30
0.0
 10
4.121838
 20
2.991849
 30
0.0
  0
LINE
  5
219
100
AcDbEntity
  8
Text
 62
7
100
AcDbLine
 10
4.121838
 20
2.991849
 30
0.0
 11
4.226382
 21
2.991849
 31
0.0
  0
SPLINE
  5
21a
100
AcDbEntity
  8
Text
 62
7
100
AcDbSpline
 70
8
 71
3
 72
8
 73
4
 74
0
 40
0
 40
0
 40
0
 40
0
 40
1
 40
1
 40
1
 40
1
 10
4.226382
 20
2.991849
 30
0.0
 10
4.244164
 20
2.991849
 30
0.0
 10
4.259366
 20
2.997729
 30
0.0
 10
4.271985
 20
3.009489
 30
0.0
  0
SPLINE
  5
21b
100
AcDbEntity
  8
Text
 62
7
100
AcDbSpline
 70
8
 71
3
 72
8
 73
4
 74
0
 40
0
 40
0
 40
0
 40
0
 40
1
 40
1
 40
1
 40
1
 10
4.271985
 20
3.009489
 30
0.0
 10
4.284605
 20
3.021535
 30
0.0
 10
4.291489
 20
3.036449
 30
0.0
 10
4.292636
 20
3.054232
 30
0.0
  0
SPLINE
  5
21c
100
AcDbEntity
  8
Text
 62
7
100
AcDbSpline
 70
8
 71
3
 72
8
 73
4
 74
0
 40
0
 40
0
 40
0
 40
0
 40
1
 40
1
 40
1
 40
1
 10
4.292636
 20
3.054232
 30
0.0
 10
4.293210
 20
3.062262
 30
0.0
 10
4.293497
 20
3.074022
 30
0.0
 10
4.293497
 20
3.089510
 30
0.0
  0
LINE
  5
21d
100
AcDbEntity
  8
Text
 62
7
100
AcDbLine
 10
4.293497
 20
3.089510
 30
0.0
 11
4.293492
 21
3.089510
 31
0.0
  0
SPLINE
  5
21e
100
AcDbEntity
  8
Text
 62
7
100
AcDbSpline
 70
8
 71
3
 72
8
 73
4
 74
0
 40
0
 40
0
 40
0
 40
0
 40
1
 40
1
 40
1
 40
1
 10
4.571174
 20
3.244820
 30
0.0
 10
4.571174
 20
3.234208
 30
0.0
 10
4.564578
 20
3.228902
 30
0.0
 10
4.551384
 20
3.228902
 30
0.0
  0
LINE
  5
21f
100
AcDbEntity
  8
Text
 62
7
100
AcDbLine
 10
4.551384
 20
3.228902
 30
0.0
 11
4.490723
 21
3.228902
 31
0.0
  0
SPLINE
  5
220
100
AcDbEntity
  8
Text
 62
7
100
AcDbSpline
 70
8
 71
3
 72
8
 73
4
 74
0
 40
0
 40
0
 40
0
 40
0
 40
1
 40
1
 40
1
 40
1
 10
4.490723
 20
3.228902
 30
0.0
 10
4.482405
 20
3.228902
 30
0.0
 10
4.478246
 20
3.224169
 30
0.0
 10
4.478246
 20
3.214705
 30
0.0
  0
LINE
  5
221
100
AcDbEntity
  8
Text
 62
7
100
AcDbLine
 10
4.478246
 20
3.214705
 30
0.0
 11
4.478246
 21
3.090370
 31
0.0
  0
SPLINE
  5
222
100
AcDbEntity
  8
Text
 62
7
100
AcDbSpline
 70
8
 71
3
 72
8
 73
4
 74
0
 40
0
 40
0
 40
0
 40
0
 40
1
 40
1
 40
1
 40
1
 10
4.478246
 20
3.090370
 30
0.0
 10
4.487424
 20
3.084634
 30
0.0
 10
4.493447
 20
3.079902
 30
0.0
 10
4.496315
 20
3.076173
 30
0.0
  0
SPLINE
  5
223
100
AcDbEntity
  8
Text
 62
7
100
AcDbSpline
 70
8
 71
3
 72
8
 73
4
 74
0
 40
0
 40
0
 40
0
 40
0
 40
1
 40
1
 40
1
 40
1
 10
4.496315
 20
3.076173
 30
0.0
 10
4.500331
 20
3.070723
 30
0.0
 10
4.502339
 20
3.063266
 30
0.0
 10
4.502339
 20
3.053801
 30
0.0
  0
LINE
  5
224
100
AcDbEntity
  8
Text
 62
7
100
AcDbLine
 10
4.502339
 20
3.053801
 30
0.0
 11
4.502339
 21
2.984105
 31
0.0
  0
SPLINE
  5
225
100
AcDbEntity
  8
Text
 62
7
100
AcDbSpline
 70
8
 71
3
 72
8
 73
4
 74
0
 40
0
 40
0
 40
0
 40
0
 40
1
 40
1
 40
1
 40
1
 10
4.502339
 20
2.984105
 30
0.0
 10
4.502339
 20
2.973780
 30
0.0
 10
4.500331
 20
2.966897
 30
0.0
 10
4.496315
 20
2.963455
 30
0.0
  0
SPLINE
  5
226
100
AcDbEntity
  8
Text
 62
7
100
AcDbSpline
 70
8
 71
3
 72
8
 73
4
 74
0
 40
0
 40
0
 40
0
 40
0
 40
1
 40
1
 40
1
 40
1
 10
4.496315
 20
2.963455
 30
0.0
 10
4.492300
 20
2.960300
 30
0.0
 10
4.485130
 20
2.958722
 30
0.0
 10
4.474804
 20
2.958722
 30
0.0
  0
SPLINE
  5
227
100
AcDbEntity
  8
Text
 62
7
100
AcDbSpline
 70
8
 71
3
 72
8
 73
4
 74
0
 40
0
 40
0
 40
0
 40
0
 40
1
 40
1
 40
1
 40
1
 10
4.474804
 20
2.958722
 30
0.0
 10
4.455301
 20
2.958722
 30
0.0
 10
4.445549
 20
2.966466
 30
0.0
 10
4.445549
 20
2.981954
 30
0.0
  0
LINE
  5
228
100
AcDbEntity
  8
Text
 62
7
100
AcDbLine
 10
4.445549
 20
2.981954
 30
0.0
 11
4.445549
 21
3.215565
 31
0.0
  0
SPLINE
  5
229
100
AcDbEntity
  8
Text
 62
7
100
AcDbSpline
 70
8
 71
3
 72
8
 73
4
 74
0
 40
0
 40
0
 40
0
 40
0
 40
1
 40
1
 40
1
 40
1
 10
4.445549
 20
3.215565
 30
0.0
 10
4.445549
 20
3.224456
 30
0.0
 10
4.441247
 20
3.228902
 30
0.0
 10
4.432643
 20
3.228902
 30
0.0
  0
LINE
  5
22a
100
AcDbEntity
  8
Text
 62
7
100
AcDbLine
 10
4.432643
 20
3.228902
 30
0.0
 11
4.399085
 21
3.228902
 31
0.0
  0
SPLINE
  5
22b
100
AcDbEntity
  8
Text
 62
7
100
AcDbSpline
 70
8
 71
3
 72
8
 73
4
 74
0
 40
0
 40
0
 40
0
 40
0
 40
1
 40
1
 40
1
 40
1
 10
4.399085
 20
3.228902
 30
0.0
 10
4.391341
 20
3.228902
 30
0.0
 10
4.386752
 20
3.223596
 30
0.0
 10
4.385318
 20
3.212984
 30
0.0
  0
SPLINE
  5
22c
100
AcDbEntity
  8
Text
 62
7
100
AcDbSpline
 70
8
 71
3
 72
8
 73
4
 74
0
 40
0
 40
0
 40
0
 40
0
 40
1
 40
1
 40
1
 40
1
 10
4.385318
 20
3.212984
 30
0.0
 10
4.384170
 20
3.202371
 30
0.0
 10
4.379294
 20
3.197065
 30
0.0
 10
4.370691
 20
3.197065
 30
0.0
  0
SPLINE
  5
22d
100
AcDbEntity
  8
Text
 62
7
100
AcDbSpline
 70
8
 71
3
 72
8
 73
4
 74
0
 40
0
 40
0
 40
0
 40
0
 40
1
 40
1
 40
1
 40
1
 10
4.370691
 20
3.197065
 30
0.0
 10
4.360079
 20
3.197065
 30
0.0
 10
4.354916
 20
3.204092
 30
0.0
 10
4.355203
 20
3.218146
 30
0.0
  0
SPLINE
  5
22e
100
AcDbEntity
  8
Text
 62
7
100
AcDbSpline
 70
8
 71
3
 72
8
 73
4
 74
0
 40
0
 40
0
 40
0
 40
0
 40
1
 40
1
 40
1
 40
1
 10
4.355203
 20
3.218146
 30
0.0
 10
4.355203
 20
3.220154
 30
0.0
 10
4.355203
 20
3.222879
 30
0.0
 10
4.355203
 20
3.226321
 30
0.0
  0
SPLINE
  5
22f
100
AcDbEntity
  8
Text
 62
7
100
AcDbSpline
 70
8
 71
3
 72
8
 73
4
 74
0
 40
0
 40
0
 40
0
 40
0
 40
1
 40
1
 40
1
 40
1
 10
4.355203
 20
3.226321
 30
0.0
 10
4.354917
 20
3.230336
 30
0.0
 10
4.354774
 20
3.233204
 30
0.0
 10
4.354774
 20
3.234925
 30
0.0
  0
SPLINE
  5
230
100
AcDbEntity
  8
Text
 62
7
100
AcDbSpline
 70
8
 71
3
 72
8
 73
4
 74
0
 40
0
 40
0
 40
0
 40
0
 40
1
 40
1
 40
1
 40
1
 10
4.354774
 20
3.234925
 30
0.0
 10
4.354774
 20
3.251847
 30
0.0
 10
4.362088
 20
3.260308
 30
0.0
 10
4.376716
 20
3.260308
 30
0.0
  0
LINE
  5
231
100
AcDbEntity
  8
Text
 62
7
100
AcDbLine
 10
4.376716
 20
3.260308
 30
0.0
 11
4.551386
 21
3.260308
 31
0.0
  0
SPLINE
  5
232
100
AcDbEntity
  8
Text
 62
7
100
AcDbSpline
 70
8
 71
3
 72
8
 73
4
 74
0
 40
0
 40
0
 40
0
 40
0
 40
1
 40
1
 40
1
 40
1
 10
4.551386
 20
3.260308
 30
0.0
 10
4.564579
 20
3.260308
 30
0.0
 10
4.571176
 20
3.255145
 30
0.0
 10
4.571176
 20
3.244820
 30
0.0
  0
LINE
  5
233
100
AcDbEntity
  8
Text
 62
7
100
AcDbLine
 10
4.571176
 20
3.244820
 30
0.0
 11
4.571174
 21
3.244820
 31
0.0
  0
SPLINE
  5
234
100
AcDbEntity
  8
Text
 62
7
100
AcDbSpline
 70
8
 71
3
 72
8
 73
4
 74
0
 40
0
 40
0
 40
0
 40
0
 40
1
 40
1
 40
1
 40
1
 10
4.832165
 20
3.024546
 30
0.0
 10
4.832165
 20
3.022252
 30
0.0
 10
4.832022
 20
3.018810
 30
0.0
 10
4.831736
 20
3.014221
 30
0.0
  0
SPLINE
  5
235
100
AcDbEntity
  8
Text
 62
7
100
AcDbSpline
 70
8
 71
3
 72
8
 73
4
 74
0
 40
0
 40
0
 40
0
 40
0
 40
1
 40
1
 40
1
 40
1
 10
4.831736
 20
3.014221
 30
0.0
 10
4.831451
 20
3.009632
 30
0.0
 10
4.831308
 20
3.006190
 30
0.0
 10
4.831308
 20
3.003896
 30
0.0
  0
SPLINE
  5
236
100
AcDbEntity
  8
Text
 62
7
100
AcDbSpline
 70
8
 71
3
 72
8
 73
4
 74
0
 40
0
 40
0
 40
0
 40
0
 40
1
 40
1
 40
1
 40
1
 10
4.831308
 20
3.003896
 30
0.0
 10
4.831308
 20
2.991849
 30
0.0
 10
4.826432
 20
2.981237
 30
0.0
 10
4.816680
 20
2.972059
 30
0.0
  0
SPLINE
  5
237
100
AcDbEntity
  8
Text
 62
7
100
AcDbSpline
 70
8
 71
3
 72
8
 73
4
 74
0
 40
0
 40
0
 40
0
 40
0
 40
1
 40
1
 40
1
 40
1
 10
4.816680
 20
2.972059
 30
0.0
 10
4.807215
 20
2.963168
 30
0.0
 10
4.796460
 20
2.958722
 30
0.0
 10
4.784414
 20
2.958722
 30
0.0
  0
LINE
  5
238
100
AcDbEntity
  8
Text
 62
7
100
AcDbLine
 10
4.784414
 20
2.958722
 30
0.0
 11
4.616197
 21
2.958292
 31
0.0
  0
SPLINE
  5
239
100
AcDbEntity
  8
Text
 62
7
100
AcDbSpline
 70
8
 71
3
 72
8
 73
4
 74
0
 40
0
 40
0
 40
0
 40
0
 40
1
 40
1
 40
1
 40
1
 10
4.616197
 20
2.958292
 30
0.0
 10
4.600996
 20
2.958292
 30
0.0
 10
4.593395
 20
2.969048
 30
0.0
 10
4.593395
 20
2.990559
 30
0.0
  0
SPLINE
  5
23a
100
AcDbEntity
  8
Text
 62
7
100
AcDbSpline
 70
8
 71
3
 72
8
 73
4
 74
0
 40
0
 40
0
 40
0
 40
0
 40
1
 40
1
 40
1
 40
1
 10
4.593395
 20
2.990559
 30
0.0
 10
4.593395
 20
2.999737
 30
0.0
 10
4.595116
 20
3.006047
 30
0.0
 10
4.598557
 20
3.009489
 30
0.0
  0
SPLINE
  5
23b
100
AcDbEntity
  8
Text
 62
7
100
AcDbSpline
 70
8
 71
3
 72
8
 73
4
 74
0
 40
0
 40
0
 40
0
 40
0
 40
1
 40
1
 40
1
 40
1
 10
4.598557
 20
3.009489
 30
0.0
 10
4.602286
 20
3.013217
 30
0.0
 10
4.608883
 20
3.015082
 30
0.0
 10
4.618348
 20
3.015082
 30
0.0
  0
LINE
  5
23c
100
AcDbEntity
  8
Text
 62
7
100
AcDbLine
 10
4.618348
 20
3.015082
 30
0.0
 11
4.688044
 21
3.015082
 31
0.0
  0
SPLINE
  5
23d
100
AcDbEntity
  8
Text
 62
7
100
AcDbSpline
 70
8
 71
3
 72
8
 73
4
 74
0
 40
0
 40
0
 40
0
 40
0
 40
1
 40
1
 40
1
 40
1
 10
4.688044
 20
3.015082
 30
0.0
 10
4.697795
 20
3.015082
 30
0.0
 10
4.705253
 20
3.013217
 30
0.0
 10
4.710416
 20
3.009489
 30
0.0
  0
SPLINE
  5
23e
100
AcDbEntity
  8
Text
 62
7
100
AcDbSpline
 70
8
 71
3
 72
8
 73
4
 74
0
 40
0
 40
0
 40
0
 40
0
 40
1
 40
1
 40
1
 40
1
 10
4.710416
 20
3.009489
 30
0.0
 10
4.714431
 20
3.006621
 30
0.0
 10
4.719163
 20
3.000597
 30
0.0
 10
4.724613
 20
2.991419
 30
0.0
  0
LINE
  5
23f
100
AcDbEntity
  8
Text
 62
7
100
AcDbLine
 10
4.724613
 20
2.991419
 30
0.0
 11
4.782693
 21
2.991419
 31
0.0
  0
SPLINE
  5
240
100
AcDbEntity
  8
Text
 62
7
100
AcDbSpline
 70
8
 71
3
 72
8
 73
4
 74
0
 40
0
 40
0
 40
0
 40
0
 40
1
 40
1
 40
1
 40
1
 10
4.782693
 20
2.991419
 30
0.0
 10
4.793592
 20
2.991419
 30
0.0
 10
4.799041
 20
2.999020
 30
0.0
 10
4.799041
 20
3.014221
 30
0.0
  0
SPLINE
  5
241
100
AcDbEntity
  8
Text
 62
7
100
AcDbSpline
 70
8
 71
3
 72
8
 73
4
 74
0
 40
0
 40
0
 40
0
 40
0
 40
1
 40
1
 40
1
 40
1
 10
4.799041
 20
3.014221
 30
0.0
 10
4.799041
 20
3.023399
 30
0.0
 10
4.796747
 20
3.029709
 30
0.0
 10
4.792157
 20
3.033151
 30
0.0
  0
LINE
  5
242
100
AcDbEntity
  8
Text
 62
7
100
AcDbLine
 10
4.792157
 20
3.033151
 30
0.0
 11
4.603717
 21
3.169101
 31
0.0
  0
SPLINE
  5
243
100
AcDbEntity
  8
Text
 62
7
100
AcDbSpline
 70
8
 71
3
 72
8
 73
4
 74
0
 40
0
 40
0
 40
0
 40
0
 40
1
 40
1
 40
1
 40
1
 10
4.603717
 20
3.169101
 30
0.0
 10
4.597980
 20
3.173403
 30
0.0
 10
4.595112
 20
3.181291
 30
0.0
 10
4.595112
 20
3.192763
 30
0.0
  0
SPLINE
  5
244
100
AcDbEntity
  8
Text
 62
7
100
AcDbSpline
 70
8
 71
3
 72
8
 73
4
 74
0
 40
0
 40
0
 40
0
 40
0
 40
1
 40
1
 40
1
 40
1
 10
4.595112
 20
3.192763
 30
0.0
 10
4.595112
 20
3.195344
 30
0.0
 10
4.595255
 20
3.199073
 30
0.0
 10
4.595541
 20
3.203949
 30
0.0
  0
SPLINE
  5
245
100
AcDbEntity
  8
Text
 62
7
100
AcDbSpline
 70
8
 71
3
 72
8
 73
4
 74
0
 40
0
 40
0
 40
0
 40
0
 40
1
 40
1
 40
1
 40
1
 10
4.595541
 20
3.203949
 30
0.0
 10
4.595826
 20
3.208825
 30
0.0
 10
4.595969
 20
3.212553
 30
0.0
 10
4.595969
 20
3.215135
 30
0.0
  0
SPLINE
  5
246
100
AcDbEntity
  8
Text
 62
7
100
AcDbSpline
 70
8
 71
3
 72
8
 73
4
 74
0
 40
0
 40
0
 40
0
 40
0
 40
1
 40
1
 40
1
 40
1
 10
4.595969
 20
3.215135
 30
0.0
 10
4.595969
 20
3.227181
 30
0.0
 10
4.600701
 20
3.237650
 30
0.0
 10
4.610167
 20
3.246541
 30
0.0
  0
SPLINE
  5
247
100
AcDbEntity
  8
Text
 62
7
100
AcDbSpline
 70
8
 71
3
 72
8
 73
4
 74
0
 40
0
 40
0
 40
0
 40
0
 40
1
 40
1
 40
1
 40
1
 10
4.610167
 20
3.246541
 30
0.0
 10
4.619918
 20
3.255719
 30
0.0
 10
4.630817
 20
3.260308
 30
0.0
 10
4.642863
 20
3.260308
 30
0.0
  0
LINE
  5
248
100
AcDbEntity
  8
Text
 62
7
100
AcDbLine
 10
4.642863
 20
3.260308
 30
0.0
 11
4.815382
 21
3.260308
 31
0.0
  0
SPLINE
  5
249
100
AcDbEntity
  8
Text
 62
7
100
AcDbSpline
 70
8
 71
3
 72
8
 73
4
 74
0
 40
0
 40
0
 40
0
 40
0
 40
1
 40
1
 40
1
 40
1
 10
4.815382
 20
3.260308
 30
0.0
 10
4.825995
 20
3.260308
 30
0.0
 10
4.831301
 20
3.254859
 30
0.0
 10
4.831301
 20
3.243960
 30
0.0
  0
SPLINE
  5
24a
100
AcDbEntity
  8
Text
 62
7
100
AcDbSpline
 70
8
 71
3
 72
8
 73
4
 74
0
 40
0
 40
0
 40
0
 40
0
 40
1
 40
1
 40
1
 40
1
 10
4.831301
 20
3.243960
 30
0.0
 10
4.831301
 20
3.233061
 30
0.0
 10
4.825995
 20
3.227611
 30
0.0
 10
4.815382
 20
3.227611
 30
0.0
  0
LINE
  5
24b
100
AcDbEntity
  8
Text
 62
7
100
AcDbLine
 10
4.815382
 20
3.227611
 30
0.0
 11
4.644157
 21
3.227611
 31
0.0
  0
SPLINE
  5
24c
100
AcDbEntity
  8
Text
 62
7
100
AcDbSpline
 70
8
 71
3
 72
8
 73
4
 74
0
 40
0
 40
0
 40
0
 40
0
 40
1
 40
1
 40
1
 40
1
 10
4.644157
 20
3.227611
 30
0.0
 10
4.633832
 20
3.227611
 30
0.0
 10
4.628669
 20
3.219007
 30
0.0
 10
4.628669
 20
3.201798
 30
0.0
  0
SPLINE
  5
24d
100
AcDbEntity
  8
Text
 62
7
100
AcDbSpline
 70
8
 71
3
 72
8
 73
4
 74
0
 40
0
 40
0
 40
0
 40
0
 40
1
 40
1
 40
1
 40
1
 10
4.628669
 20
3.201798
 30
0.0
 10
4.628669
 20
3.194914
 30
0.0
 10
4.630247
 20
3.190325
 30
0.0
 10
4.633402
 20
3.188031
 30
0.0
  0
LINE
  5
24e
100
AcDbEntity
  8
Text
 62
7
100
AcDbLine
 10
4.633402
 20
3.188031
 30
0.0
 11
4.819258
 21
3.054662
 31
0.0
  0
SPLINE
  5
24f
100
AcDbEntity
  8
Text
 62
7
100
AcDbSpline
 70
8
 71
3
 72
8
 73
4
 74
0
 40
0
 40
0
 40
0
 40
0
 40
1
 40
1
 40
1
 40
1
 10
4.819258
 20
3.054662
 30
0.0
 10
4.827862
 20
3.048639
 30
0.0
 10
4.832165
 20
3.038600
 30
0.0
 10
4.832165
 20
3.024546
 30
0.0
  0
LINE
  5
250
100
AcDbEntity
  8
Text
 62
7
100
AcDbLine
 10
4.832165
 20
3.024546
 30
0.0
 11
4.832165
 21
3.024546
 31
0.0
  0
LINE
  5
251
100
AcDbEntity
  8
Text
 62
7
100
AcDbLine
 10
0.774135
 20
2.928446
 30
0.0
 11
1.463286
 21
2.928446
 31
0.0
  0
LINE
  5
252
100
AcDbEntity
  8
Text
 62
7
100
AcDbLine
 10
1.463286
 20
2.928446
 30
0.0
 11
1.476965
 21
2.895226
 31
0.0
  0
LINE
  5
253
100
AcDbEntity
  8
Text
 62
7
100
AcDbLine
 10
1.476965
 20
2.895226
 30
0.0
 11
0.774135
 21
2.897180
 31
0.0
  0
LINE
  5
254
100
AcDbEntity
  8
Text
 62
7
100
AcDbLine
 10
0.774135
 20
2.897180
 30
0.0
 11
0.774135
 21
2.928446
 31
0.0
  0
LINE
  5
255
100
AcDbEntity
  8
Text
 62
7
100
AcDbLine
 10
1.725995
 20
2.928446
 30
0.0
 11
4.831115
 21
2.928446
 31
0.0
  0
LINE
  5
256
100
AcDbEntity
  8
Text
 62
7
100
AcDbLine
 10
4.831115
 20
2.928446
 30
0.0
 11
4.831115
 21
2.895214
 31
0.0
  0
LINE
  5
257
100
AcDbEntity
  8
Text
 62
7
100
AcDbLine
 10
4.831115
 20
2.895214
 30
0.0
 11
1.725995
 21
2.895214
 31
0.0
  0
LINE
  5
258
100
AcDbEntity
  8
Text
 62
7
100
AcDbLine
 10
1.725995
 20
2.895214
 30
0.0
 11
1.725995
 21
2.928446
 31
0.0
  0
ENDSEC
  0
SECTION
  2
OBJECTS
  0
DICTIONARY
  5
C
330
0
100
AcDbDictionary
  3
ACAD_GROUP
350
D
  3
ACAD_MLINESTYLE
350
17
  0
DICTIONARY
  5
D
330
C
100
AcDbDictionary
  0
DICTIONARY
  5
1A
330
C
100
AcDbDictionary
  0
DICTIONARY
  5
17
330
C
100
AcDbDictionary
  3
STANDARD
350
18
  0
DICTIONARY
  5
19
330
C
100
AcDbDictionary
  0
ENDSEC
  0
EOF
